<svg id="svg" version="1.1" xmlns="http://www.w3.org/2000/svg" xmlns:xlink="http://www.w3.org/1999/xlink" width="400"
     height="360.8017817371937" viewBox="0, 0, 400,360.8017817371937">
    <g id="svgg">
        <path id="path1"
              d="M188.809 15.555 C 187.319 15.738,183.989 16.043,181.408 16.231 C 176.131 16.617,171.999 17.131,169.856 17.670 C 169.061 17.870,167.854 18.037,167.174 18.042 C 166.493 18.047,165.437 18.200,164.827 18.383 C 163.733 18.712,160.585 19.565,158.123 20.201 C 152.791 21.578,152.668 21.618,142.870 25.125 C 141.431 25.640,139.395 26.452,138.348 26.930 C 137.300 27.407,136.282 27.798,136.086 27.798 C 135.890 27.798,135.448 27.952,135.103 28.140 C 134.759 28.328,132.446 29.485,129.964 30.711 C 124.774 33.275,122.283 34.629,119.616 36.335 C 118.121 37.292,117.348 37.545,115.931 37.545 C 113.960 37.545,108.315 38.777,105.957 39.722 C 105.560 39.881,104.341 40.293,103.249 40.637 C 95.272 43.154,83.353 50.274,75.271 57.351 C 74.874 57.698,73.899 58.461,73.105 59.045 C 71.049 60.557,60.059 71.633,58.123 74.145 C 57.229 75.304,55.678 77.250,54.676 78.469 C 53.673 79.688,51.432 82.635,49.695 85.018 C 47.958 87.401,45.799 90.325,44.898 91.516 C 43.997 92.708,43.112 94.007,42.931 94.404 C 42.749 94.801,42.440 95.370,42.244 95.668 C 40.181 98.800,35.342 106.862,34.044 109.332 C 33.141 111.049,31.906 113.348,31.300 114.440 C 30.694 115.532,29.565 117.644,28.793 119.134 C 28.020 120.623,27.092 122.410,26.730 123.105 C 26.042 124.426,24.643 127.396,22.792 131.467 C 22.190 132.790,21.063 135.227,20.287 136.882 C 17.530 142.767,16.968 144.069,16.968 144.573 C 16.968 144.854,16.805 145.184,16.606 145.307 C 16.408 145.430,16.245 145.765,16.245 146.052 C 16.245 146.339,15.839 147.416,15.343 148.445 C 14.847 149.474,14.440 150.443,14.440 150.599 C 14.440 150.755,14.052 151.740,13.578 152.788 C 11.587 157.189,10.375 160.804,8.704 167.329 C 8.276 169.003,7.763 175.964,7.893 178.339 C 8.251 184.881,8.688 188.252,9.927 194.043 C 11.097 199.510,11.324 200.353,12.260 202.708 C 12.417 203.105,13.004 204.892,13.563 206.679 C 14.123 208.466,14.701 210.171,14.849 210.469 C 15.211 211.199,16.920 215.041,17.578 216.606 C 18.348 218.436,22.585 226.975,23.669 228.881 C 24.177 229.774,25.153 231.561,25.837 232.852 C 26.521 234.143,27.283 235.518,27.530 235.908 C 27.776 236.299,28.692 237.761,29.565 239.157 C 30.438 240.554,31.778 242.636,32.543 243.784 C 33.309 244.932,33.935 245.950,33.935 246.047 C 33.935 246.277,45.499 262.491,46.111 263.118 C 46.369 263.383,47.025 264.196,47.567 264.923 C 48.108 265.650,48.638 266.327,48.743 266.426 C 48.848 266.525,49.817 267.744,50.897 269.134 C 55.714 275.337,60.135 278.946,64.079 279.895 C 66.310 280.431,72.231 280.621,72.682 280.170 C 72.895 279.957,73.459 279.783,73.936 279.783 C 78.496 279.783,84.257 274.396,87.833 266.787 C 88.626 265.099,89.319 263.665,89.372 263.599 C 89.610 263.305,90.975 264.340,90.975 264.814 C 90.975 265.105,91.111 265.343,91.278 265.343 C 91.444 265.343,91.750 265.708,91.958 266.155 C 92.165 266.602,93.887 269.042,95.784 271.577 C 108.015 287.921,119.367 298.084,132.310 304.274 C 134.097 305.128,135.842 305.978,136.186 306.163 C 136.531 306.347,137.108 306.498,137.468 306.498 C 137.828 306.498,138.295 306.670,138.505 306.880 C 140.858 309.234,146.521 306.514,147.191 302.708 C 147.914 298.607,146.453 296.801,140.391 294.296 C 129.936 289.976,118.609 280.760,109.928 269.509 C 109.332 268.737,108.423 267.606,107.908 266.995 C 105.527 264.174,100.660 257.083,98.691 253.568 C 96.280 249.263,96.281 249.281,98.060 245.536 C 102.119 236.992,102.266 234.954,99.630 223.827 C 99.465 223.132,99.060 221.426,98.730 220.036 C 97.637 215.434,97.467 214.638,97.138 212.564 C 96.958 211.432,96.626 209.564,96.399 208.412 C 93.095 191.622,91.927 167.251,93.866 155.596 C 94.735 150.372,95.100 148.393,95.974 144.163 C 96.186 143.137,97.108 140.376,98.022 138.026 C 100.080 132.737,100.385 130.409,99.325 128.080 C 97.056 123.100,89.915 123.826,87.901 129.242 C 87.192 131.150,86.891 131.926,86.288 133.394 C 85.587 135.100,84.618 138.267,84.133 140.433 C 83.537 143.097,83.190 144.597,82.670 146.751 C 81.865 150.089,81.011 157.233,80.491 164.982 C 79.935 173.257,80.283 181.554,81.793 196.029 C 82.033 198.326,83.001 205.255,83.382 207.401 C 83.755 209.504,84.734 215.216,84.990 216.787 C 85.208 218.124,85.711 220.391,86.472 223.466 C 89.324 234.979,89.322 234.631,86.590 240.357 C 85.576 242.484,84.057 245.686,83.215 247.473 C 75.772 263.269,75.058 264.654,73.648 266.050 C 70.127 269.536,66.236 268.416,61.785 262.635 C 60.867 261.444,59.844 260.144,59.510 259.747 C 54.116 253.326,44.462 239.740,38.365 229.988 C 37.922 229.280,36.998 227.644,36.311 226.354 C 35.624 225.063,34.644 223.276,34.132 222.383 C 33.236 220.818,29.950 214.162,28.785 211.552 C 28.475 210.857,27.785 209.330,27.252 208.159 C 22.774 198.317,19.848 183.986,20.425 174.729 C 20.651 171.106,20.898 169.809,22.209 165.343 C 23.142 162.165,23.207 161.980,23.707 161.021 C 23.969 160.519,24.184 159.985,24.186 159.834 C 24.187 159.683,24.494 158.870,24.869 158.029 C 25.244 157.187,26.234 154.792,27.069 152.708 C 27.905 150.623,28.719 148.592,28.879 148.195 C 29.462 146.740,30.463 144.509,31.954 141.336 C 32.794 139.549,34.079 136.787,34.810 135.199 C 36.885 130.689,41.269 122.078,45.013 115.162 C 45.389 114.468,46.472 112.599,47.420 111.011 C 48.368 109.422,49.288 107.879,49.466 107.581 C 54.326 99.409,60.901 90.047,65.162 85.229 C 66.155 84.107,67.699 82.300,68.592 81.215 C 70.501 78.896,72.693 76.669,78.282 71.372 C 88.814 61.389,97.583 55.762,108.681 51.865 C 112.308 50.591,114.375 50.150,118.051 49.864 C 121.365 49.606,123.219 48.929,126.188 46.895 C 133.403 41.950,148.702 35.488,160.289 32.491 C 160.984 32.311,162.527 31.902,163.718 31.581 C 167.891 30.456,169.722 30.106,176.173 29.204 C 186.650 27.739,204.067 27.733,214.260 29.192 C 220.131 30.033,222.112 30.414,226.715 31.588 C 228.005 31.918,229.711 32.350,230.505 32.550 C 233.207 33.227,235.915 34.047,238.989 35.117 C 240.677 35.705,242.426 36.267,242.875 36.367 C 243.325 36.467,243.781 36.691,243.889 36.866 C 243.998 37.041,244.336 37.184,244.642 37.184 C 244.948 37.184,245.710 37.409,246.335 37.683 C 246.961 37.958,248.042 38.385,248.736 38.633 C 250.013 39.088,264.702 46.265,265.704 46.923 C 266.002 47.119,267.870 48.264,269.856 49.468 C 274.032 52.000,273.793 51.857,277.033 53.769 L 279.518 55.235 284.212 55.235 C 286.793 55.235,289.493 55.386,290.211 55.571 C 290.929 55.756,292.653 56.176,294.043 56.503 C 295.433 56.831,296.895 57.233,297.292 57.398 C 297.690 57.562,299.472 58.288,301.254 59.011 C 303.036 59.734,305.272 60.805,306.223 61.390 C 307.175 61.976,308.029 62.455,308.121 62.455 C 308.408 62.455,311.942 64.846,315.317 67.323 C 321.361 71.759,330.821 80.926,333.920 85.349 C 334.210 85.763,334.665 86.324,334.932 86.597 C 337.322 89.041,345.853 102.035,350.131 109.747 C 352.677 114.336,360.650 130.653,360.650 131.274 C 360.650 131.387,360.894 132.032,361.191 132.707 C 361.674 133.802,362.230 135.115,363.165 137.365 C 363.885 139.101,364.699 141.043,365.055 141.877 C 365.266 142.374,365.560 143.105,365.707 143.502 C 365.855 143.899,366.175 144.711,366.420 145.307 C 366.665 145.903,367.165 147.283,367.531 148.375 C 367.898 149.468,368.440 151.011,368.736 151.805 C 370.527 156.615,372.307 161.738,372.593 162.906 C 372.775 163.651,373.095 164.950,373.305 165.794 C 374.465 170.472,374.256 183.025,372.952 187.004 C 372.790 187.500,372.374 189.206,372.029 190.794 C 371.683 192.383,371.270 194.007,371.110 194.404 C 370.949 194.801,370.740 195.451,370.645 195.848 C 370.326 197.174,367.597 204.547,366.692 206.528 C 366.201 207.604,365.423 209.377,364.964 210.469 C 364.505 211.561,363.247 214.161,362.169 216.245 C 360.405 219.658,359.670 221.020,357.300 225.271 C 356.913 225.966,355.708 227.996,354.622 229.783 C 353.537 231.570,352.459 233.348,352.227 233.733 C 350.226 237.057,348.726 239.293,344.823 244.765 C 340.225 251.213,334.546 258.737,333.787 259.386 C 333.555 259.585,332.816 260.518,332.146 261.461 C 329.717 264.874,325.083 267.084,324.007 265.343 C 323.885 265.144,323.447 264.982,323.036 264.982 C 322.624 264.982,321.730 264.391,321.048 263.668 C 319.906 262.457,319.165 261.051,315.081 252.347 C 313.493 248.961,310.522 242.739,308.099 237.726 C 306.230 233.856,305.928 232.287,306.500 229.413 C 306.940 227.202,307.115 226.444,308.126 222.383 C 309.201 218.064,310.307 212.711,310.847 209.206 C 311.030 208.014,311.436 205.578,311.748 203.791 C 312.060 202.004,312.456 199.242,312.629 197.653 C 312.802 196.065,313.109 193.384,313.311 191.697 C 314.379 182.779,314.471 180.793,314.348 169.314 C 314.205 156.099,313.597 149.173,312.050 143.141 C 311.745 141.949,311.333 140.325,311.136 139.531 C 310.549 137.172,308.920 131.978,308.646 131.588 C 308.505 131.390,308.021 130.121,307.569 128.769 C 305.666 123.078,302.380 121.185,298.082 123.307 C 294.513 125.069,294.010 128.305,296.403 134.116 C 296.874 135.261,298.239 139.116,298.383 139.711 C 301.204 151.332,302.173 159.287,302.165 170.758 C 302.160 177.003,301.956 180.393,301.044 189.350 C 300.842 191.336,300.537 194.341,300.367 196.029 C 300.197 197.717,299.783 200.560,299.448 202.347 C 299.112 204.134,298.714 206.408,298.561 207.401 C 298.235 209.530,297.628 212.599,297.133 214.621 C 293.787 228.284,293.420 230.545,293.908 234.477 C 294.105 236.065,294.419 237.519,294.606 237.708 C 294.793 237.896,294.946 238.339,294.946 238.692 C 294.946 239.044,295.767 241.064,296.770 243.180 C 298.926 247.729,299.168 248.704,298.482 250.064 C 297.497 252.016,295.561 255.422,294.895 256.373 C 294.526 256.900,294.224 257.425,294.224 257.539 C 294.224 258.126,286.216 269.628,283.135 273.466 C 279.797 277.624,274.754 282.928,271.661 285.533 C 268.423 288.259,263.708 291.697,263.206 291.697 C 263.024 291.697,262.822 291.829,262.756 291.991 C 262.651 292.247,257.805 294.670,255.235 295.751 C 251.036 297.516,249.458 299.231,249.458 302.030 C 249.458 306.812,254.166 309.693,258.742 307.712 C 259.494 307.386,260.433 307.000,260.830 306.852 C 262.913 306.079,268.268 303.346,269.766 302.291 C 270.710 301.627,271.582 301.083,271.703 301.083 C 272.227 301.083,277.813 296.767,280.815 294.043 C 288.202 287.339,297.909 275.399,303.776 265.798 C 305.872 262.368,305.904 262.364,307.374 265.338 C 308.074 266.756,308.976 268.378,309.378 268.942 C 309.780 269.506,310.108 270.109,310.108 270.283 C 310.108 271.795,316.797 276.579,320.036 277.383 C 329.135 279.644,336.467 276.534,343.321 267.507 C 344.413 266.069,346.366 263.572,347.660 261.959 C 350.341 258.618,360.650 244.232,360.650 243.833 C 360.650 243.688,361.056 243.037,361.552 242.387 C 362.049 241.736,362.455 241.107,362.455 240.989 C 362.455 240.870,363.433 239.194,364.628 237.264 C 365.823 235.334,366.950 233.511,367.133 233.213 C 367.315 232.915,368.353 230.966,369.439 228.881 C 370.524 226.796,371.956 224.116,372.620 222.924 C 374.139 220.198,374.732 218.945,377.064 213.538 C 377.320 212.942,377.956 211.516,378.476 210.369 C 378.997 209.222,379.422 208.123,379.422 207.927 C 379.422 207.732,379.579 207.289,379.770 206.945 C 380.203 206.164,383.529 195.769,384.129 193.321 C 384.651 191.191,385.009 189.418,385.804 185.018 C 386.563 180.812,386.676 168.658,385.984 165.523 C 385.208 162.008,383.876 157.027,383.377 155.776 C 383.218 155.379,382.815 154.242,382.481 153.249 C 382.147 152.256,381.740 151.119,381.578 150.722 C 381.416 150.325,381.010 149.188,380.676 148.195 C 380.342 147.202,379.936 146.065,379.774 145.668 C 379.097 144.005,377.617 139.857,377.617 139.623 C 377.617 139.484,377.230 138.513,376.756 137.465 C 374.886 133.327,374.296 131.974,373.663 130.368 C 373.301 129.449,372.418 127.426,371.701 125.874 C 370.984 124.322,370.397 122.956,370.397 122.839 C 370.397 122.722,368.915 119.607,367.103 115.916 C 365.291 112.225,363.422 108.394,362.949 107.401 C 361.928 105.254,360.528 102.714,360.017 102.079 C 359.816 101.829,359.217 100.812,358.687 99.819 C 357.678 97.930,357.578 97.759,355.686 94.677 C 355.041 93.626,354.513 92.688,354.513 92.593 C 354.513 92.498,353.254 90.705,351.715 88.610 C 350.176 86.515,348.673 84.440,348.375 83.998 C 347.193 82.246,344.535 78.793,343.154 77.215 C 342.353 76.299,340.807 74.431,339.719 73.064 C 335.275 67.480,324.270 57.764,317.666 53.595 C 312.933 50.607,306.611 47.292,305.646 47.292 C 305.387 47.292,305.063 47.181,304.927 47.045 C 304.697 46.814,303.524 46.344,300.903 45.430 C 300.307 45.223,299.170 44.913,298.375 44.743 C 297.581 44.573,295.875 44.155,294.585 43.815 C 293.141 43.434,290.434 43.147,287.545 43.070 C 283.038 42.948,280.505 42.360,280.505 41.434 C 280.505 41.281,280.338 41.155,280.134 41.155 C 279.839 41.155,275.147 38.376,272.202 36.457 C 270.827 35.560,253.407 27.104,251.805 26.555 C 250.812 26.215,249.675 25.786,249.278 25.602 C 246.347 24.246,238.504 21.731,232.310 20.161 C 231.516 19.960,230.054 19.575,229.061 19.306 C 225.932 18.457,224.446 18.129,221.661 17.670 C 211.071 15.925,194.469 14.856,188.809 15.555 M142.599 122.980 C 141.904 123.067,140.824 123.375,140.198 123.663 C 139.572 123.952,138.965 124.188,138.848 124.188 C 138.542 124.188,137.269 125.245,135.669 126.829 C 130.225 132.219,131.425 141.874,138.071 146.151 C 141.261 148.205,147.781 146.967,154.332 143.064 C 155.994 142.074,156.005 142.026,155.838 136.643 C 155.505 125.930,151.560 121.858,142.599 122.980 M260.469 122.980 C 258.038 123.344,254.874 125.330,253.984 127.051 C 251.724 131.422,251.179 141.854,253.161 142.809 C 253.607 143.023,255.108 143.784,256.498 144.499 C 264.950 148.850,270.733 147.870,274.112 141.513 C 279.183 131.974,271.364 121.352,260.469 122.980 M177.437 181.057 C 172.383 182.096,168.713 185.350,167.038 190.278 C 166.739 191.158,166.296 192.365,166.054 192.960 C 165.427 194.505,165.117 195.314,164.603 196.751 C 164.355 197.446,163.948 198.502,163.699 199.097 C 163.450 199.693,162.815 201.399,162.287 202.888 C 161.759 204.377,161.157 205.906,160.949 206.286 C 160.741 206.665,160.486 207.910,160.383 209.051 C 159.945 213.880,160.972 214.843,170.758 218.775 C 172.843 219.612,175.036 220.511,175.632 220.771 C 180.832 223.046,184.844 223.492,188.671 222.222 C 191.247 221.367,208.710 221.979,213.638 223.097 C 215.038 223.415,215.841 223.426,216.670 223.137 C 217.290 222.921,218.220 222.732,218.736 222.718 C 219.253 222.703,221.787 221.585,224.368 220.234 C 226.949 218.882,230.602 216.984,232.485 216.018 C 236.708 213.850,238.426 212.238,238.764 210.128 C 239.146 207.738,238.798 206.386,236.513 201.374 C 236.088 200.441,235.740 199.587,235.740 199.474 C 235.740 199.362,235.398 198.500,234.980 197.559 C 234.010 195.378,233.384 193.918,232.927 192.780 C 230.592 186.956,228.145 183.593,225.099 182.018 L 223.285 181.080 211.191 180.972 C 204.540 180.913,194.630 180.824,189.170 180.775 C 183.398 180.723,178.486 180.841,177.437 181.057 M128.881 219.188 C 127.417 219.611,126.175 220.665,125.327 222.202 C 124.552 223.606,124.463 235.787,125.203 239.170 C 128.128 252.555,137.658 264.386,152.617 273.204 C 154.057 274.052,155.247 274.865,155.262 275.009 C 155.276 275.153,155.336 278.520,155.395 282.491 C 155.519 290.897,156.057 298.689,156.865 303.791 C 157.179 305.776,157.579 308.294,157.753 309.386 C 157.928 310.478,158.338 312.347,158.666 313.538 C 158.994 314.729,159.346 316.110,159.447 316.606 C 159.549 317.103,159.861 318.021,160.141 318.647 C 160.421 319.272,160.650 320.034,160.650 320.340 C 160.650 320.646,160.812 320.996,161.011 321.119 C 161.209 321.242,161.372 321.642,161.372 322.008 C 161.372 324.282,166.685 333.064,169.918 336.130 C 173.762 339.777,176.631 341.284,183.394 343.208 C 193.392 346.053,211.331 346.112,217.870 343.321 C 218.466 343.067,219.522 342.614,220.217 342.314 C 223.491 340.901,227.663 337.229,229.242 334.371 C 229.540 333.832,230.149 332.879,230.596 332.253 C 231.042 331.628,231.408 331.024,231.408 330.911 C 231.408 330.798,231.834 329.767,232.354 328.620 C 233.767 325.504,234.168 324.513,234.660 322.924 C 234.906 322.130,235.229 321.231,235.377 320.927 C 235.526 320.622,235.769 319.810,235.916 319.122 C 236.064 318.433,236.308 317.708,236.458 317.509 C 236.609 317.310,236.826 316.661,236.940 316.065 C 237.054 315.469,237.401 313.845,237.712 312.455 C 239.663 303.723,240.232 298.439,240.241 288.989 C 240.245 284.621,240.113 280.072,239.948 278.881 L 239.649 276.715 240.792 276.083 C 241.421 275.736,242.065 275.451,242.222 275.451 C 242.933 275.451,250.830 270.584,253.997 268.193 C 264.962 259.915,271.134 250.826,274.071 238.628 C 275.562 232.436,274.550 222.312,272.239 220.302 C 267.384 216.081,261.736 220.090,262.253 227.390 C 263.091 239.197,258.396 248.623,247.180 257.653 C 244.694 259.654,239.033 263.177,238.303 263.177 C 238.085 263.177,237.906 263.307,237.906 263.465 C 237.906 263.859,235.584 264.686,233.394 265.072 C 225.689 266.430,224.023 265.668,210.108 254.424 L 205.957 251.069 205.776 241.660 L 205.596 232.252 204.582 230.924 C 201.867 227.367,197.735 227.314,194.753 230.798 L 193.502 232.260 193.502 241.191 C 193.502 252.042,194.297 250.282,186.698 256.254 C 172.269 267.593,169.577 268.156,158.664 262.116 C 144.355 254.196,137.315 243.669,136.921 229.603 C 136.662 220.370,134.495 217.562,128.881 219.188 M201.093 263.427 C 201.584 263.763,202.067 264.133,202.166 264.250 C 202.622 264.786,212.606 272.492,213.984 273.371 C 218.095 275.992,221.460 277.321,225.369 277.866 C 226.254 277.989,226.873 278.322,227.137 278.815 C 228.225 280.847,227.724 298.986,226.402 305.415 C 226.219 306.309,225.879 308.014,225.647 309.206 C 225.415 310.397,225.076 311.859,224.894 312.455 C 223.875 315.784,222.638 319.450,222.215 320.397 C 217.701 330.499,216.399 331.576,207.114 332.886 C 203.861 333.345,194.109 332.867,191.516 332.122 C 190.921 331.950,189.296 331.549,187.906 331.229 C 182.080 329.889,180.963 329.410,178.757 327.307 C 174.473 323.224,171.319 315.400,169.711 304.874 C 168.563 297.360,168.231 293.120,168.231 285.997 C 168.231 277.182,167.741 278.102,172.563 277.857 C 179.016 277.530,182.365 275.784,193.682 266.845 C 198.915 262.712,199.592 262.400,201.093 263.427 "
              stroke="none" fill="#090807" fill-rule="evenodd"></path>
        <path id="path2"
              d="M190.162 15.056 C 190.609 15.142,191.340 15.142,191.787 15.056 C 192.234 14.970,191.868 14.900,190.975 14.900 C 190.081 14.900,189.716 14.970,190.162 15.056 M197.022 15.063 C 197.667 15.143,198.723 15.143,199.368 15.063 C 200.014 14.983,199.486 14.917,198.195 14.917 C 196.904 14.917,196.376 14.983,197.022 15.063 M207.856 15.418 C 208.305 15.504,208.955 15.501,209.300 15.410 C 209.645 15.320,209.278 15.249,208.484 15.253 C 207.690 15.258,207.407 15.331,207.856 15.418 M187.906 28.948 C 180.097 29.352,173.216 30.123,169.038 31.062 C 168.191 31.252,167.104 31.408,166.623 31.408 C 166.141 31.408,165.658 31.552,165.549 31.728 C 165.440 31.904,164.740 32.158,163.993 32.291 C 163.246 32.425,162.148 32.678,161.552 32.854 C 160.957 33.030,159.495 33.438,158.303 33.762 C 157.112 34.086,155.812 34.488,155.415 34.654 C 155.018 34.821,154.368 35.035,153.971 35.130 C 151.950 35.613,145.364 38.052,141.958 39.579 C 140.910 40.049,139.902 40.433,139.718 40.433 C 139.053 40.433,128.802 45.845,127.099 47.095 C 126.139 47.799,125.187 48.375,124.982 48.375 C 124.777 48.375,124.555 48.497,124.489 48.646 C 124.178 49.346,121.800 50.181,120.119 50.181 C 118.082 50.181,114.866 50.709,112.094 51.499 C 110.249 52.025,109.857 52.169,107.479 53.199 C 106.727 53.524,105.891 53.791,105.621 53.791 C 105.350 53.791,103.934 54.381,102.474 55.102 C 101.014 55.823,99.251 56.675,98.557 56.997 C 97.863 57.318,95.849 58.515,94.083 59.657 C 92.317 60.799,90.803 61.733,90.718 61.733 C 90.634 61.733,89.642 62.474,88.514 63.380 C 87.385 64.285,86.218 65.220,85.921 65.457 C 82.880 67.871,80.533 70.030,75.255 75.271 C 71.856 78.646,68.521 82.139,67.846 83.032 C 67.170 83.926,66.443 84.840,66.230 85.064 C 66.018 85.288,65.122 86.325,64.240 87.368 C 63.357 88.411,62.458 89.449,62.241 89.676 C 62.023 89.903,61.421 90.734,60.902 91.524 C 58.631 94.978,56.952 97.301,56.647 97.413 C 56.466 97.479,56.318 97.681,56.318 97.863 C 56.318 98.044,55.505 99.331,54.513 100.722 C 53.520 102.113,52.708 103.340,52.708 103.448 C 52.708 103.626,51.055 106.390,49.899 108.144 C 49.645 108.529,49.342 109.129,49.225 109.477 C 49.109 109.824,48.870 110.108,48.694 110.108 C 48.519 110.108,48.375 110.274,48.375 110.476 C 48.375 110.679,47.936 111.532,47.400 112.372 C 46.863 113.212,45.913 114.874,45.288 116.065 C 44.664 117.256,43.211 120.018,42.060 122.202 C 39.521 127.021,37.265 131.512,35.803 134.657 C 33.027 140.628,30.760 145.619,29.980 147.473 C 28.892 150.060,27.895 152.465,27.399 153.700 C 27.179 154.246,26.793 155.181,26.541 155.776 C 26.288 156.372,25.640 157.996,25.100 159.386 C 24.559 160.776,23.988 162.238,23.830 162.635 C 22.959 164.822,22.383 166.722,22.383 167.410 C 22.383 167.838,22.243 168.275,22.072 168.380 C 21.901 168.486,21.552 170.628,21.296 173.140 C 20.707 178.917,21.164 185.326,22.581 191.155 C 22.919 192.545,23.273 194.293,23.369 195.038 C 23.464 195.784,23.687 196.484,23.865 196.594 C 24.042 196.704,24.188 197.158,24.188 197.603 C 24.188 198.047,24.329 198.566,24.502 198.755 C 24.675 198.943,25.100 200.072,25.447 201.264 C 25.793 202.455,26.301 203.942,26.576 204.567 C 26.851 205.193,27.076 205.798,27.076 205.912 C 27.076 206.026,27.542 207.139,28.112 208.384 C 28.681 209.630,29.520 211.543,29.976 212.635 C 30.431 213.727,30.940 214.775,31.106 214.964 C 31.272 215.153,31.408 215.586,31.408 215.927 C 31.408 216.267,31.530 216.600,31.679 216.667 C 31.828 216.733,32.368 217.599,32.880 218.592 C 33.393 219.585,34.432 221.534,35.191 222.924 C 35.950 224.314,37.054 226.345,37.645 227.437 C 38.235 228.529,39.104 229.940,39.576 230.572 C 40.047 231.204,40.433 231.881,40.433 232.076 C 40.433 232.271,40.559 232.485,40.713 232.551 C 40.867 232.617,41.867 234.052,42.936 235.740 C 44.004 237.428,46.071 240.475,47.529 242.511 C 48.987 244.547,50.181 246.300,50.181 246.407 C 50.181 246.514,50.587 247.040,51.083 247.575 C 51.579 248.111,51.986 248.740,51.986 248.973 C 51.986 249.207,52.118 249.452,52.279 249.519 C 52.440 249.585,53.280 250.614,54.145 251.805 C 55.010 252.996,56.137 254.471,56.650 255.082 C 58.096 256.806,60.781 260.279,63.080 263.398 C 67.204 268.993,72.341 268.542,75.376 262.318 C 76.013 261.012,76.534 259.777,76.534 259.574 C 76.534 259.372,76.697 259.206,76.895 259.206 C 77.094 259.206,77.256 258.977,77.256 258.698 C 77.256 258.418,77.653 257.403,78.138 256.441 C 78.906 254.918,81.643 249.194,85.706 240.614 C 87.912 235.955,88.087 235.457,88.087 233.836 C 88.087 232.947,87.843 231.530,87.545 230.686 C 87.247 229.842,87.004 228.694,87.004 228.135 C 87.004 227.576,86.841 227.018,86.643 226.895 C 86.444 226.773,86.282 226.205,86.282 225.634 C 86.282 225.063,86.097 224.138,85.871 223.579 C 85.438 222.507,84.988 220.499,84.511 217.509 C 84.353 216.516,84.111 215.447,83.973 215.132 C 83.743 214.604,83.521 213.161,82.702 206.859 C 82.535 205.569,82.295 204.269,82.170 203.971 C 81.904 203.340,81.482 199.764,80.167 187.004 C 79.667 182.148,79.661 161.823,80.159 159.206 C 80.367 158.114,80.679 155.839,80.854 154.152 C 81.273 150.106,81.896 146.226,82.210 145.718 C 82.349 145.494,82.580 144.578,82.724 143.684 C 83.331 139.902,84.302 136.305,84.911 135.578 C 85.069 135.389,85.199 134.948,85.199 134.597 C 85.199 134.018,85.869 132.218,86.687 130.601 C 86.861 130.256,87.004 129.752,87.004 129.482 C 87.004 126.538,92.532 123.247,95.837 124.223 C 101.020 125.754,102.053 131.129,98.571 138.448 C 97.850 139.963,96.390 144.677,96.390 145.489 C 96.390 145.956,96.241 146.838,96.058 147.447 C 93.633 155.558,92.936 189.682,95.089 194.946 C 95.211 195.244,95.467 197.031,95.658 198.917 C 96.169 203.960,96.615 207.070,96.892 207.517 C 97.026 207.735,97.300 209.016,97.499 210.364 C 98.039 214.013,98.449 216.163,99.105 218.773 C 99.430 220.063,99.839 221.769,100.013 222.563 C 100.886 226.523,101.387 228.496,101.612 228.860 C 102.022 229.523,101.891 238.686,101.466 239.111 C 101.255 239.322,101.083 239.722,101.083 240.000 C 101.083 240.522,100.741 241.340,98.685 245.730 C 97.318 248.649,97.218 249.879,98.217 251.444 C 98.598 252.040,99.022 252.771,99.159 253.069 C 99.297 253.366,100.313 254.991,101.419 256.679 C 102.524 258.366,103.490 259.892,103.566 260.070 C 103.642 260.247,104.029 260.765,104.425 261.221 C 104.822 261.677,105.329 262.365,105.551 262.751 C 106.002 263.529,108.955 267.468,109.549 268.081 C 109.757 268.297,110.496 269.182,111.191 270.049 C 111.886 270.916,112.938 272.202,113.529 272.906 C 115.291 275.009,122.787 282.395,124.729 283.942 C 125.721 284.732,126.741 285.574,126.994 285.813 C 128.779 287.497,138.485 293.141,139.594 293.141 C 139.857 293.141,140.072 293.303,140.072 293.502 C 140.072 293.700,140.354 293.863,140.699 293.863 C 141.623 293.863,144.900 295.603,146.084 296.722 C 150.949 301.323,146.032 310.142,139.892 307.827 C 139.495 307.678,139.657 307.790,140.253 308.077 C 142.323 309.074,150.742 311.888,153.971 312.662 C 155.758 313.090,157.539 313.608,157.929 313.813 C 158.606 314.170,158.612 314.148,158.065 313.313 C 157.494 312.442,157.392 311.957,156.709 306.889 C 156.511 305.417,156.241 303.955,156.109 303.640 C 155.633 302.504,155.147 294.927,154.923 285.138 C 154.796 279.644,154.612 275.095,154.513 275.029 C 154.413 274.964,154.007 274.733,153.610 274.516 C 146.969 270.897,142.970 267.841,136.938 261.775 C 133.911 258.731,130.686 254.591,130.686 253.749 C 130.686 253.574,130.553 253.430,130.391 253.430 C 129.843 253.430,125.865 244.977,125.260 242.524 C 125.049 241.672,124.620 239.919,124.306 238.628 C 123.558 235.558,123.460 225.382,124.158 223.285 C 125.752 218.493,130.785 216.631,134.738 219.370 C 137.075 220.990,137.333 221.810,137.616 228.520 C 137.986 237.303,138.381 239.133,140.975 244.083 C 144.780 251.346,153.248 259.067,161.733 263.011 C 162.428 263.334,163.307 263.765,163.686 263.968 C 164.065 264.171,165.283 264.491,166.393 264.677 C 167.503 264.864,168.920 265.106,169.542 265.215 C 170.186 265.327,170.778 265.242,170.917 265.016 C 171.052 264.799,171.761 264.613,172.494 264.604 C 173.744 264.588,177.104 262.998,178.628 261.702 C 178.966 261.414,179.892 260.700,180.686 260.114 C 181.480 259.528,182.623 258.637,183.226 258.134 C 183.829 257.632,184.953 256.733,185.724 256.137 C 186.495 255.542,188.317 254.107,189.773 252.949 L 192.419 250.844 192.419 242.910 C 192.419 232.578,192.797 231.002,195.798 228.828 C 198.087 227.170,202.019 227.398,204.045 229.305 C 206.288 231.416,206.302 231.485,206.498 241.526 C 206.646 249.110,206.776 250.868,207.220 251.290 C 207.518 251.573,208.732 252.528,209.918 253.412 C 212.359 255.231,212.121 255.041,216.245 258.449 C 219.892 261.461,225.042 264.621,226.304 264.621 C 226.800 264.621,227.751 264.818,228.418 265.060 C 229.371 265.404,229.783 265.404,230.335 265.060 C 230.721 264.818,231.574 264.621,232.229 264.621 C 233.677 264.621,236.536 263.644,238.310 262.543 C 239.028 262.098,239.800 261.733,240.025 261.733 C 240.249 261.733,240.433 261.570,240.433 261.372 C 240.433 261.173,240.603 261.011,240.812 261.011 C 241.240 261.011,244.679 258.866,245.494 258.091 C 245.788 257.810,246.679 257.099,247.473 256.509 C 257.074 249.381,261.467 240.529,261.542 228.159 C 261.567 224.058,261.701 222.690,262.161 221.841 C 264.968 216.658,271.972 216.900,274.551 222.270 C 276.304 225.917,275.351 242.013,273.252 244.206 C 273.072 244.394,272.924 244.748,272.924 244.992 C 272.924 245.833,268.646 254.254,267.905 254.874 C 267.786 254.973,267.445 255.537,267.147 256.127 C 266.507 257.397,257.855 266.224,255.776 267.728 C 254.982 268.303,254.125 268.968,253.872 269.207 C 253.032 270.000,247.496 273.528,246.029 274.205 C 245.235 274.572,244.504 274.975,244.404 275.100 C 244.106 275.476,241.802 276.534,241.280 276.534 C 241.013 276.534,240.794 276.737,240.793 276.986 C 240.752 296.252,240.312 305.755,239.369 307.762 C 239.183 308.159,238.953 309.134,238.859 309.928 C 238.603 312.078,238.091 314.147,237.564 315.162 L 237.095 316.065 237.822 315.310 C 238.263 314.853,239.451 314.377,240.845 314.101 C 243.593 313.558,251.592 311.026,253.588 310.068 C 254.370 309.693,255.263 309.384,255.573 309.381 C 257.182 309.365,256.682 308.838,255.020 308.798 C 252.413 308.735,249.708 306.883,249.289 304.874 C 248.363 300.427,249.293 297.891,252.418 296.339 C 255.095 295.010,257.811 293.863,258.283 293.863 C 258.559 293.863,258.839 293.741,258.905 293.592 C 258.971 293.443,259.675 293.006,260.469 292.620 C 261.264 292.234,262.430 291.543,263.063 291.085 C 263.695 290.627,264.354 290.253,264.529 290.253 C 264.703 290.253,265.161 289.964,265.546 289.612 C 265.931 289.259,267.301 288.166,268.592 287.181 C 272.227 284.409,279.826 276.712,283.025 272.563 C 283.714 271.670,284.369 270.857,284.481 270.758 C 285.010 270.288,288.448 265.314,288.448 265.018 C 288.448 264.833,288.575 264.627,288.730 264.561 C 289.106 264.401,292.058 259.934,292.058 259.526 C 292.058 259.350,292.220 259.206,292.419 259.206 C 292.617 259.206,292.780 259.015,292.780 258.783 C 292.780 258.550,293.007 258.104,293.285 257.790 C 293.783 257.227,294.050 256.773,296.375 252.527 C 297.027 251.336,297.704 250.207,297.878 250.018 C 298.316 249.544,298.278 246.931,297.834 246.931 C 297.635 246.931,297.473 246.755,297.473 246.540 C 297.473 246.325,296.823 244.838,296.029 243.234 C 295.235 241.631,294.585 240.047,294.585 239.714 C 294.585 239.382,294.469 238.993,294.327 238.851 C 293.199 237.724,292.557 231.437,293.284 228.648 C 293.602 227.428,293.863 225.935,293.863 225.330 C 293.863 224.725,294.025 224.130,294.224 224.007 C 294.422 223.885,294.583 223.428,294.582 222.993 C 294.578 222.127,295.599 217.579,296.055 216.426 C 296.212 216.029,296.419 215.217,296.515 214.621 C 296.611 214.025,296.959 212.157,297.287 210.469 C 297.616 208.782,298.022 206.507,298.189 205.415 C 298.356 204.323,298.772 201.805,299.112 199.819 C 299.788 195.877,300.098 192.893,300.688 184.657 C 300.901 181.679,301.251 177.629,301.466 175.658 C 301.857 172.082,301.769 170.068,300.674 157.401 C 300.459 154.919,300.213 151.913,300.127 150.722 C 300.040 149.531,299.824 148.231,299.645 147.834 C 299.265 146.991,298.571 144.050,298.323 142.238 C 298.228 141.543,298.012 140.650,297.842 140.253 C 297.673 139.856,297.244 138.637,296.889 137.545 C 296.534 136.453,296.115 135.405,295.956 135.217 C 295.798 135.028,295.667 134.622,295.666 134.314 C 295.664 134.006,295.421 133.289,295.124 132.720 C 294.828 132.152,294.585 131.369,294.585 130.982 C 294.585 130.594,294.417 129.965,294.213 129.582 C 293.681 128.589,294.727 125.227,295.947 124.007 C 297.691 122.263,299.222 121.781,302.460 121.957 C 303.821 122.031,307.581 125.538,307.581 126.734 C 307.581 127.097,307.744 127.495,307.942 127.617 C 308.141 127.740,308.304 128.115,308.305 128.451 C 308.307 128.787,308.550 129.527,308.847 130.095 C 309.144 130.664,309.386 131.357,309.386 131.635 C 309.386 131.912,309.529 132.422,309.703 132.767 C 310.611 134.561,311.191 136.222,311.191 137.021 C 311.191 137.513,311.335 138.198,311.510 138.543 C 311.941 139.392,312.713 142.473,312.911 144.136 C 313.000 144.882,313.218 145.582,313.396 145.691 C 313.573 145.801,313.725 146.816,313.734 147.945 C 313.743 149.075,313.908 150.731,314.102 151.625 C 314.552 153.697,315.317 166.161,315.299 171.119 C 315.280 176.520,314.590 189.357,314.294 189.837 C 314.157 190.059,313.880 191.827,313.680 193.766 C 312.822 202.070,312.698 203.096,312.494 203.610 C 312.262 204.194,311.687 207.523,311.217 211.011 C 310.802 214.096,310.135 217.388,309.756 218.231 C 309.577 218.628,309.353 219.522,309.258 220.217 C 308.983 222.231,308.304 225.036,307.928 225.717 C 307.737 226.062,307.581 226.905,307.581 227.591 C 307.581 228.277,307.419 228.939,307.220 229.061 C 306.764 229.344,306.746 233.374,307.197 234.211 C 307.383 234.555,308.259 236.381,309.144 238.267 C 311.935 244.216,312.279 244.933,312.612 245.487 C 312.790 245.785,313.215 246.679,313.555 247.473 C 313.896 248.267,315.026 250.704,316.068 252.888 C 317.110 255.072,318.491 257.984,319.138 259.359 C 322.523 266.555,327.572 266.755,332.695 259.894 C 335.966 255.513,337.713 253.221,337.896 253.069 C 338.015 252.969,339.233 251.345,340.602 249.458 C 341.971 247.572,343.224 245.975,343.387 245.909 C 343.549 245.842,343.682 245.628,343.682 245.433 C 343.682 245.035,345.518 242.486,345.939 242.298 C 346.088 242.232,346.209 241.987,346.209 241.753 C 346.209 241.520,346.616 240.890,347.112 240.355 C 347.608 239.820,348.014 239.316,348.014 239.235 C 348.014 239.155,348.827 237.857,349.819 236.351 C 350.812 234.846,351.625 233.496,351.625 233.352 C 351.625 233.207,351.852 232.833,352.130 232.519 C 352.408 232.206,353.083 231.137,353.629 230.144 C 354.175 229.152,354.719 228.258,354.838 228.159 C 354.957 228.060,355.231 227.653,355.448 227.256 C 355.665 226.859,356.384 225.560,357.046 224.368 C 359.738 219.523,363.293 212.573,364.432 209.928 C 364.774 209.134,365.424 207.671,365.877 206.679 C 367.544 203.021,367.870 202.229,367.870 201.836 C 367.870 201.615,368.013 201.152,368.187 200.807 C 368.362 200.463,368.782 199.287,369.121 198.195 C 369.459 197.103,369.867 195.884,370.026 195.487 C 370.532 194.223,371.842 189.092,372.099 187.365 C 372.203 186.670,372.448 185.902,372.644 185.658 C 373.177 184.993,373.208 167.678,372.679 165.884 C 372.444 165.090,371.985 163.466,371.658 162.274 C 371.331 161.083,370.927 159.783,370.759 159.386 C 370.469 158.697,369.711 156.595,367.667 150.812 C 367.158 149.373,366.610 147.946,366.449 147.642 C 366.288 147.337,366.042 146.567,365.903 145.931 C 365.763 145.294,365.498 144.681,365.315 144.568 C 365.132 144.454,364.982 144.077,364.982 143.729 C 364.982 143.380,364.576 142.254,364.079 141.225 C 363.583 140.196,363.177 139.221,363.177 139.059 C 363.177 138.763,361.663 135.390,361.002 134.211 C 360.808 133.866,360.650 133.424,360.650 133.228 C 360.650 132.375,352.835 115.998,350.134 111.191 C 349.521 110.099,348.643 108.532,348.183 107.707 C 347.723 106.883,346.965 105.584,346.499 104.819 C 346.033 104.055,345.411 102.952,345.118 102.369 C 344.626 101.390,339.498 93.881,338.642 92.885 C 338.436 92.645,338.267 92.280,338.267 92.073 C 338.267 91.866,338.116 91.697,337.930 91.697 C 337.745 91.697,337.500 91.400,337.385 91.038 C 337.270 90.676,336.889 90.067,336.537 89.685 C 336.186 89.302,335.417 88.339,334.829 87.545 C 334.240 86.751,333.672 86.020,333.567 85.921 C 333.461 85.821,332.811 85.009,332.122 84.116 C 330.786 82.382,329.172 80.509,327.951 79.277 C 325.271 76.570,318.678 70.684,316.827 69.346 C 315.614 68.469,314.540 67.655,314.440 67.538 C 313.927 66.930,310.038 64.295,308.303 63.379 C 307.211 62.803,306.236 62.236,306.137 62.119 C 306.038 62.002,305.063 61.481,303.971 60.961 C 302.216 60.125,301.391 59.761,298.375 58.492 C 294.597 56.902,288.718 55.880,283.006 55.820 C 279.090 55.779,278.734 55.714,277.328 54.783 C 276.503 54.237,275.682 53.791,275.503 53.791 C 275.325 53.791,274.989 53.562,274.757 53.282 C 274.525 53.003,273.815 52.511,273.178 52.189 C 272.542 51.868,271.778 51.450,271.480 51.260 C 265.245 47.296,249.988 39.350,248.612 39.350 C 248.307 39.350,247.957 39.188,247.834 38.989 C 247.711 38.791,247.245 38.628,246.799 38.628 C 246.352 38.628,245.671 38.390,245.286 38.098 C 244.900 37.807,244.252 37.563,243.845 37.557 C 243.438 37.550,242.950 37.416,242.762 37.258 C 242.573 37.100,241.769 36.756,240.975 36.494 C 240.181 36.232,239.043 35.812,238.448 35.560 C 237.422 35.126,234.557 34.279,231.769 33.587 C 230.139 33.182,227.993 32.612,226.173 32.100 C 224.419 31.607,221.958 31.142,218.592 30.667 C 217.202 30.471,215.594 30.152,215.018 29.957 C 214.443 29.762,213.289 29.603,212.455 29.603 C 211.621 29.603,210.467 29.453,209.891 29.269 C 208.503 28.826,194.273 28.618,187.906 28.948 M327.798 60.402 C 327.798 60.464,328.326 60.992,328.971 61.575 L 330.144 62.635 329.084 61.462 C 328.096 60.368,327.798 60.123,327.798 60.402 M147.989 122.430 C 151.600 123.574,154.513 125.592,154.513 126.951 C 154.513 127.218,154.675 127.437,154.874 127.437 C 155.072 127.437,155.235 127.810,155.235 128.267 C 155.235 128.724,155.384 129.252,155.567 129.440 C 156.288 130.186,157.087 137.709,156.700 140.112 C 156.244 142.945,155.946 143.193,149.370 146.208 C 146.297 147.618,141.200 148.409,139.797 147.696 C 139.452 147.520,138.727 147.170,138.186 146.918 C 136.033 145.912,132.491 141.708,132.491 140.157 C 132.491 139.793,132.317 139.321,132.105 139.109 C 131.629 138.632,131.617 132.402,132.090 131.508 C 132.277 131.155,132.677 130.298,132.978 129.603 C 134.219 126.741,138.856 122.744,140.936 122.744 C 141.430 122.744,141.935 122.581,142.058 122.383 C 142.361 121.893,146.394 121.925,147.989 122.430 M265.884 122.383 C 266.007 122.581,266.464 122.745,266.899 122.747 C 268.171 122.753,271.260 124.729,272.891 126.582 C 277.219 131.499,277.565 138.674,273.703 143.402 C 269.154 148.971,264.722 149.343,255.776 144.906 C 251.353 142.712,251.463 142.873,251.319 138.401 C 251.159 133.432,251.643 130.766,253.377 127.076 C 254.367 124.970,257.208 122.750,258.928 122.738 C 259.379 122.735,259.991 122.575,260.289 122.383 C 261.004 121.920,265.599 121.920,265.884 122.383 M386.734 169.856 C 386.738 170.650,386.812 170.932,386.898 170.483 C 386.984 170.034,386.981 169.384,386.891 169.039 C 386.800 168.694,386.730 169.061,386.734 169.856 M387.107 175.271 C 387.110 176.264,387.180 176.627,387.263 176.078 C 387.346 175.529,387.343 174.717,387.258 174.273 C 387.172 173.829,387.104 174.278,387.107 175.271 M221.661 180.347 C 223.150 180.657,224.523 181.063,224.711 181.249 C 224.900 181.436,225.280 181.588,225.556 181.588 C 227.826 181.588,231.871 187.739,234.884 195.773 C 235.197 196.609,235.843 198.079,236.319 199.041 C 236.795 200.002,237.184 201.099,237.184 201.477 C 237.184 201.856,237.334 202.166,237.516 202.166 C 237.699 202.166,237.955 202.652,238.086 203.245 C 238.216 203.838,238.473 204.417,238.656 204.530 C 238.839 204.643,238.989 205.123,238.989 205.596 C 238.989 206.069,239.152 206.556,239.350 206.679 C 239.549 206.801,239.711 207.695,239.711 208.664 C 239.711 209.634,239.549 210.527,239.350 210.650 C 239.152 210.773,238.989 211.155,238.989 211.500 C 238.989 212.577,236.321 214.797,232.920 216.549 C 217.903 224.289,218.790 223.944,214.497 223.700 C 204.188 223.113,189.367 222.801,187.809 223.137 C 184.882 223.769,182.355 223.931,181.320 223.553 C 180.772 223.353,179.391 222.893,178.249 222.531 C 177.107 222.169,176.173 221.743,176.173 221.586 C 176.173 221.428,175.846 221.300,175.446 221.300 C 175.047 221.300,174.437 221.145,174.093 220.956 C 173.748 220.767,172.816 220.344,172.022 220.017 C 170.262 219.291,169.553 218.996,167.690 218.219 C 166.895 217.887,165.839 217.450,165.343 217.248 C 159.750 214.966,158.022 210.960,160.490 205.991 C 160.777 205.415,161.011 204.722,161.011 204.452 C 161.011 204.182,161.157 203.679,161.335 203.334 C 161.513 202.990,161.936 201.977,162.274 201.083 C 162.613 200.190,163.015 199.209,163.168 198.905 C 163.321 198.601,163.560 197.831,163.700 197.194 C 163.840 196.558,164.104 195.944,164.288 195.831 C 164.471 195.718,164.621 195.308,164.621 194.920 C 164.621 194.532,164.767 193.932,164.945 193.587 C 165.123 193.242,165.551 192.229,165.896 191.336 C 168.453 184.717,171.287 181.941,177.103 180.357 C 179.931 179.587,217.964 179.578,221.661 180.347 M338.248 273.917 L 337.004 275.271 338.357 274.027 C 339.102 273.342,339.711 272.733,339.711 272.673 C 339.711 272.397,339.406 272.657,338.248 273.917 M57.040 276.715 C 57.713 277.410,58.346 277.978,58.445 277.978 C 58.544 277.978,58.074 277.410,57.401 276.715 C 56.727 276.020,56.095 275.451,55.996 275.451 C 55.896 275.451,56.366 276.020,57.040 276.715 M103.971 282.784 C 103.971 282.847,104.499 283.375,105.144 283.958 L 106.318 285.018 105.257 283.845 C 104.269 282.751,103.971 282.506,103.971 282.784 M198.663 346.117 C 200.211 346.185,202.647 346.184,204.078 346.116 C 205.508 346.048,204.242 345.992,201.264 345.993 C 198.285 345.993,197.115 346.049,198.663 346.117 "
              stroke="none" fill="#f3ab43" fill-rule="evenodd"></path>
        <path id="path3"
              d="M188.899 28.783 C 189.644 28.861,190.862 28.861,191.606 28.783 C 192.351 28.705,191.742 28.641,190.253 28.641 C 188.764 28.641,188.154 28.705,188.899 28.783 M198.827 28.788 C 200.266 28.856,202.622 28.856,204.061 28.788 C 205.501 28.719,204.323 28.663,201.444 28.663 C 198.565 28.663,197.387 28.719,198.827 28.788 M182.401 29.130 C 182.748 29.221,183.317 29.221,183.664 29.130 C 184.012 29.039,183.727 28.965,183.032 28.965 C 182.338 28.965,182.053 29.039,182.401 29.130 M179.697 29.497 C 180.146 29.584,180.796 29.580,181.141 29.490 C 181.487 29.400,181.119 29.329,180.325 29.333 C 179.531 29.337,179.248 29.411,179.697 29.497 M174.549 29.964 C 174.094 30.159,174.027 30.274,174.368 30.274 C 174.666 30.274,175.235 30.135,175.632 29.964 C 176.087 29.768,176.154 29.654,175.812 29.654 C 175.514 29.654,174.946 29.793,174.549 29.964 M171.209 30.574 C 171.557 30.665,172.125 30.665,172.473 30.574 C 172.820 30.483,172.536 30.409,171.841 30.409 C 171.146 30.409,170.862 30.483,171.209 30.574 M218.141 30.574 C 218.488 30.665,219.057 30.665,219.404 30.574 C 219.752 30.483,219.468 30.409,218.773 30.409 C 218.078 30.409,217.793 30.483,218.141 30.574 M221.300 31.030 C 221.597 31.232,222.153 31.399,222.533 31.402 C 223.457 31.410,223.169 31.203,221.841 30.906 C 221.050 30.729,220.904 30.763,221.300 31.030 M144.585 38.100 C 143.989 38.372,143.745 38.597,144.043 38.599 C 144.341 38.601,144.991 38.370,145.487 38.087 C 146.629 37.434,146.019 37.443,144.585 38.100 M245.286 38.067 C 245.671 38.376,246.240 38.615,246.549 38.600 C 247.035 38.575,247.038 38.544,246.570 38.370 C 246.273 38.260,245.704 38.020,245.307 37.837 C 244.596 37.511,244.596 37.514,245.286 38.067 M140.433 39.892 C 139.937 40.175,139.693 40.408,139.892 40.408 C 140.090 40.408,140.659 40.175,141.155 39.892 C 141.652 39.608,141.895 39.376,141.697 39.376 C 141.498 39.376,140.930 39.608,140.433 39.892 M126.003 47.491 C 125.314 47.977,124.907 48.375,125.100 48.374 C 125.293 48.373,125.939 47.972,126.534 47.484 C 127.925 46.344,127.622 46.348,126.003 47.491 M115.523 50.558 C 115.128 50.826,115.274 50.859,116.065 50.682 C 117.392 50.385,117.681 50.179,116.757 50.186 C 116.376 50.189,115.821 50.356,115.523 50.558 M106.318 53.262 C 105.722 53.535,105.478 53.760,105.776 53.762 C 106.074 53.763,106.724 53.533,107.220 53.249 C 108.362 52.597,107.752 52.605,106.318 53.262 M280.776 55.850 C 281.223 55.936,281.954 55.936,282.401 55.850 C 282.847 55.764,282.482 55.694,281.588 55.694 C 280.695 55.694,280.329 55.764,280.776 55.850 M287.545 55.940 C 288.238 56.254,290.172 56.459,289.862 56.185 C 289.779 56.112,289.061 55.954,288.267 55.833 C 287.261 55.679,287.042 55.712,287.545 55.940 M72.190 77.888 L 70.217 79.964 72.292 77.991 C 74.221 76.157,74.534 75.812,74.266 75.812 C 74.209 75.812,73.275 76.746,72.190 77.888 M325.812 77.256 C 326.588 78.051,327.304 78.700,327.403 78.700 C 327.502 78.700,326.949 78.051,326.173 77.256 C 325.398 76.462,324.682 75.812,324.583 75.812 C 324.483 75.812,325.037 76.462,325.812 77.256 M142.114 122.292 C 142.022 122.441,143.296 122.563,144.946 122.563 C 146.596 122.563,147.758 122.444,147.529 122.298 C 146.980 121.949,142.329 121.944,142.114 122.292 M260.412 122.298 C 260.183 122.444,261.344 122.563,262.994 122.563 C 264.644 122.563,265.919 122.441,265.828 122.292 C 265.614 121.944,260.963 121.949,260.412 122.298 M92.905 124.103 C 92.675 124.249,93.269 124.368,94.224 124.368 C 95.179 124.368,95.772 124.249,95.543 124.103 C 95.314 123.957,94.720 123.838,94.224 123.838 C 93.727 123.838,93.134 123.957,92.905 124.103 M135.543 126.083 L 134.116 127.617 135.650 126.190 C 137.077 124.863,137.350 124.549,137.077 124.549 C 137.018 124.549,136.327 125.239,135.543 126.083 M294.072 127.992 C 293.946 128.496,293.972 129.139,294.130 129.422 C 294.314 129.750,294.431 129.420,294.455 128.506 C 294.498 126.848,294.394 126.708,294.072 127.992 M85.618 133.048 C 85.013 134.375,85.129 134.659,85.783 133.452 C 86.088 132.888,86.271 132.360,86.188 132.277 C 86.105 132.194,85.849 132.541,85.618 133.048 M276.281 135.379 C 276.281 136.471,276.349 136.918,276.432 136.372 C 276.515 135.826,276.515 134.932,276.432 134.386 C 276.349 133.840,276.281 134.287,276.281 135.379 M156.401 135.018 C 156.401 135.713,156.476 135.997,156.567 135.650 C 156.657 135.302,156.657 134.734,156.567 134.386 C 156.476 134.039,156.401 134.323,156.401 135.018 M156.770 137.726 C 156.774 138.520,156.848 138.802,156.934 138.353 C 157.020 137.904,157.017 137.254,156.927 136.909 C 156.836 136.564,156.766 136.931,156.770 137.726 M156.401 140.433 C 156.401 141.128,156.476 141.412,156.567 141.065 C 156.657 140.718,156.657 140.149,156.567 139.801 C 156.476 139.454,156.401 139.738,156.401 140.433 M298.200 142.449 C 298.204 142.829,298.371 143.384,298.572 143.682 C 298.840 144.078,298.874 143.932,298.697 143.141 C 298.400 141.813,298.193 141.525,298.200 142.449 M143.321 147.670 C 142.926 147.938,143.072 147.971,143.863 147.794 C 145.190 147.497,145.478 147.291,144.555 147.298 C 144.174 147.301,143.619 147.468,143.321 147.670 M262.846 147.422 C 262.929 147.493,263.484 147.661,264.079 147.794 C 264.870 147.971,265.016 147.938,264.621 147.670 C 264.133 147.340,262.484 147.110,262.846 147.422 M300.036 151.294 C 300.056 151.972,300.207 152.933,300.373 153.430 C 300.568 154.012,300.601 153.628,300.469 152.347 C 300.234 150.075,299.983 149.464,300.036 151.294 M94.791 151.831 C 94.658 152.360,94.619 152.862,94.704 152.947 C 94.790 153.033,94.968 152.669,95.101 152.140 C 95.233 151.611,95.272 151.109,95.187 151.024 C 95.102 150.939,94.924 151.302,94.791 151.831 M314.531 156.137 C 314.535 156.931,314.609 157.214,314.696 156.765 C 314.782 156.316,314.779 155.666,314.688 155.321 C 314.598 154.976,314.527 155.343,314.531 156.137 M300.825 157.220 C 300.828 158.213,300.898 158.576,300.981 158.028 C 301.064 157.479,301.062 156.666,300.976 156.222 C 300.890 155.778,300.823 156.227,300.825 157.220 M94.088 157.807 C 93.787 159.312,94.079 159.603,94.404 158.123 C 94.541 157.499,94.578 156.913,94.486 156.821 C 94.394 156.729,94.215 157.173,94.088 157.807 M79.921 164.440 C 79.922 166.823,79.980 167.751,80.051 166.502 C 80.122 165.253,80.121 163.304,80.050 162.170 C 79.978 161.036,79.921 162.058,79.921 164.440 M301.201 163.357 C 301.203 164.747,301.268 165.272,301.346 164.523 C 301.425 163.774,301.423 162.636,301.344 161.996 C 301.264 161.355,301.200 161.968,301.201 163.357 M93.649 167.509 C 93.649 170.785,93.703 172.125,93.770 170.487 C 93.837 168.849,93.837 166.169,93.770 164.531 C 93.703 162.893,93.649 164.233,93.649 167.509 M314.982 170.758 C 314.982 174.635,315.089 176.987,315.221 175.993 C 315.521 173.727,315.517 168.727,315.214 165.884 C 315.079 164.629,314.982 166.678,314.982 170.758 M301.547 167.690 C 301.550 168.682,301.620 169.046,301.703 168.497 C 301.786 167.948,301.784 167.136,301.698 166.692 C 301.612 166.248,301.545 166.697,301.547 167.690 M373.422 174.368 C 373.422 176.652,373.480 177.586,373.552 176.444 C 373.624 175.302,373.624 173.434,373.552 172.292 C 373.480 171.151,373.422 172.085,373.422 174.368 M21.030 173.466 C 21.034 174.260,21.108 174.542,21.194 174.093 C 21.280 173.644,21.277 172.994,21.187 172.649 C 21.096 172.304,21.026 172.671,21.030 173.466 M301.257 176.659 C 301.118 178.147,301.076 179.581,301.164 179.845 C 301.252 180.109,301.438 178.963,301.577 177.299 C 301.716 175.634,301.758 174.201,301.670 174.113 C 301.583 174.025,301.397 175.171,301.257 176.659 M93.628 177.617 C 93.628 179.305,93.690 179.995,93.766 179.152 C 93.842 178.308,93.842 176.927,93.766 176.083 C 93.690 175.239,93.628 175.930,93.628 177.617 M20.681 178.159 C 20.684 179.152,20.754 179.515,20.837 178.966 C 20.920 178.417,20.917 177.605,20.832 177.161 C 20.746 176.717,20.678 177.166,20.681 178.159 M79.915 181.408 C 79.916 183.394,79.977 184.160,80.050 183.111 C 80.123 182.062,80.122 180.437,80.048 179.501 C 79.974 178.564,79.914 179.422,79.915 181.408 M182.491 180.038 C 191.513 180.267,221.286 180.307,220.512 180.090 C 220.052 179.961,210.415 179.874,199.097 179.897 C 187.780 179.919,180.307 179.983,182.491 180.038 M373.036 181.769 C 373.038 182.960,373.105 183.404,373.186 182.755 C 373.266 182.106,373.265 181.132,373.182 180.589 C 373.100 180.047,373.034 180.578,373.036 181.769 M21.022 181.949 C 21.022 182.644,21.097 182.929,21.187 182.581 C 21.278 182.234,21.278 181.665,21.187 181.318 C 21.097 180.970,21.022 181.255,21.022 181.949 M300.834 185.379 C 300.836 186.570,300.903 187.014,300.984 186.365 C 301.064 185.717,301.062 184.742,300.980 184.199 C 300.898 183.657,300.832 184.188,300.834 185.379 M21.398 185.199 C 21.398 186.092,21.468 186.458,21.554 186.011 C 21.640 185.564,21.640 184.833,21.554 184.386 C 21.468 183.940,21.398 184.305,21.398 185.199 M314.549 185.921 C 314.549 187.013,314.616 187.459,314.699 186.913 C 314.782 186.367,314.782 185.474,314.699 184.928 C 314.616 184.382,314.549 184.829,314.549 185.921 M80.170 188.839 C 80.184 189.319,80.342 190.036,80.522 190.433 C 80.750 190.936,80.783 190.718,80.630 189.711 C 80.374 188.035,80.133 187.577,80.170 188.839 M300.084 191.336 C 300.084 192.031,300.158 192.315,300.249 191.968 C 300.340 191.620,300.340 191.051,300.249 190.704 C 300.158 190.356,300.084 190.641,300.084 191.336 M80.892 195.337 C 80.906 195.817,81.064 196.534,81.244 196.931 C 81.472 197.435,81.505 197.216,81.352 196.209 C 81.096 194.533,80.855 194.075,80.892 195.337 M313.222 196.074 C 313.095 196.708,313.058 197.294,313.140 197.376 C 313.222 197.458,313.401 197.014,313.538 196.390 C 313.675 195.766,313.712 195.180,313.620 195.088 C 313.528 194.996,313.349 195.440,313.222 196.074 M299.509 196.827 C 299.387 197.281,299.302 197.978,299.319 198.375 C 299.336 198.773,299.499 198.464,299.681 197.689 C 300.033 196.189,299.882 195.434,299.509 196.827 M95.405 198.917 C 95.405 199.810,95.476 200.176,95.562 199.729 C 95.648 199.282,95.648 198.551,95.562 198.105 C 95.476 197.658,95.405 198.023,95.405 198.917 M81.679 200.542 C 81.683 201.336,81.757 201.618,81.844 201.169 C 81.930 200.720,81.927 200.070,81.836 199.725 C 81.746 199.380,81.675 199.747,81.679 200.542 M82.677 208.153 C 82.680 208.533,82.847 209.088,83.049 209.386 C 83.317 209.782,83.350 209.636,83.173 208.845 C 82.876 207.517,82.670 207.229,82.677 208.153 M97.196 210.108 C 97.196 210.803,97.270 211.088,97.361 210.740 C 97.452 210.393,97.452 209.824,97.361 209.477 C 97.270 209.129,97.196 209.413,97.196 210.108 M159.211 209.958 C 159.214 210.537,159.372 211.255,159.562 211.552 C 159.797 211.921,159.837 211.633,159.686 210.650 C 159.412 208.865,159.204 208.561,159.211 209.958 M97.693 213.177 C 97.990 214.504,98.197 214.792,98.189 213.869 C 98.186 213.488,98.019 212.933,97.817 212.635 C 97.550 212.240,97.516 212.386,97.693 213.177 M129.874 218.305 C 130.320 218.391,131.051 218.391,131.498 218.305 C 131.945 218.219,131.579 218.149,130.686 218.149 C 129.792 218.149,129.427 218.219,129.874 218.305 M267.238 218.309 C 267.784 218.392,268.678 218.392,269.224 218.309 C 269.770 218.226,269.323 218.159,268.231 218.159 C 267.139 218.159,266.692 218.226,267.238 218.309 M263.335 220.307 L 262.274 221.480 263.448 220.420 C 264.093 219.837,264.621 219.309,264.621 219.247 C 264.621 218.968,264.323 219.213,263.335 220.307 M189.982 222.641 C 190.528 222.724,191.421 222.724,191.968 222.641 C 192.514 222.559,192.067 222.491,190.975 222.491 C 189.883 222.491,189.436 222.559,189.982 222.641 M124.033 223.672 C 123.900 224.201,123.861 224.704,123.946 224.789 C 124.031 224.874,124.210 224.510,124.342 223.981 C 124.475 223.452,124.514 222.950,124.429 222.865 C 124.344 222.780,124.166 223.143,124.033 223.672 M196.856 223.012 C 198.205 223.081,200.317 223.081,201.549 223.011 C 202.782 222.940,201.679 222.883,199.097 222.884 C 196.516 222.885,195.508 222.942,196.856 223.012 M181.354 223.550 C 181.867 223.878,185.156 223.864,185.998 223.531 C 186.339 223.396,185.340 223.285,183.778 223.285 C 182.216 223.285,181.126 223.405,181.354 223.550 M209.416 223.234 C 209.499 223.306,210.379 223.458,211.372 223.573 C 212.533 223.707,212.919 223.670,212.455 223.468 C 211.765 223.169,209.103 222.964,209.416 223.234 M217.690 223.466 C 216.946 223.704,216.914 223.760,217.509 223.785 C 217.906 223.802,218.475 223.658,218.773 223.466 C 219.405 223.057,218.966 223.057,217.690 223.466 M274.997 224.771 C 275.101 225.741,275.246 226.602,275.319 226.685 C 275.607 227.012,275.420 223.975,275.124 223.507 C 274.930 223.202,274.881 223.693,274.997 224.771 M261.470 224.910 C 261.470 225.803,261.541 226.169,261.627 225.722 C 261.713 225.275,261.713 224.544,261.627 224.097 C 261.541 223.651,261.470 224.016,261.470 224.910 M137.318 229.242 C 137.318 231.327,137.377 232.180,137.450 231.137 C 137.523 230.095,137.523 228.389,137.450 227.347 C 137.377 226.304,137.318 227.157,137.318 229.242 M123.594 230.505 C 123.593 232.292,123.654 233.069,123.730 232.231 C 123.805 231.393,123.806 229.931,123.732 228.982 C 123.657 228.033,123.595 228.718,123.594 230.505 M292.888 231.769 C 292.888 232.861,292.956 233.308,293.038 232.762 C 293.121 232.216,293.121 231.322,293.038 230.776 C 292.956 230.230,292.888 230.677,292.888 231.769 M306.597 231.769 C 306.597 232.662,306.667 233.028,306.753 232.581 C 306.839 232.134,306.839 231.403,306.753 230.957 C 306.667 230.510,306.597 230.875,306.597 231.769 M137.790 235.199 C 137.905 236.191,138.059 237.071,138.133 237.154 C 138.387 237.438,138.195 235.198,137.888 234.296 C 137.682 233.687,137.650 233.981,137.790 235.199 M206.212 241.697 C 206.177 246.264,206.268 250.188,206.413 250.418 C 206.559 250.649,206.636 247.887,206.584 244.281 C 206.432 233.790,206.281 232.740,206.212 241.697 M192.502 242.474 L 192.419 250.832 191.065 251.982 C 190.006 252.881,189.954 252.971,190.826 252.394 C 192.835 251.068,192.801 251.248,192.689 242.373 L 192.585 234.116 192.502 242.474 M275.144 235.063 C 275.115 235.584,275.010 236.559,274.911 237.229 L 274.732 238.448 275.112 237.236 C 275.321 236.570,275.426 235.595,275.345 235.070 L 275.198 234.116 275.144 235.063 M48.014 243.682 C 48.439 244.278,48.867 244.765,48.966 244.765 C 49.065 244.765,48.800 244.278,48.375 243.682 C 47.951 243.087,47.523 242.599,47.424 242.599 C 47.324 242.599,47.590 243.087,48.014 243.682 M97.253 248.169 C 97.144 248.452,97.115 249.061,97.189 249.522 C 97.288 250.139,97.372 250.003,97.506 249.007 C 97.695 247.606,97.595 247.275,97.253 248.169 M338.989 251.625 C 338.565 252.220,338.299 252.708,338.398 252.708 C 338.498 252.708,338.926 252.220,339.350 251.625 C 339.774 251.029,340.040 250.542,339.941 250.542 C 339.842 250.542,339.413 251.029,338.989 251.625 M252.504 252.076 L 251.444 253.249 252.617 252.189 C 253.263 251.606,253.791 251.078,253.791 251.015 C 253.791 250.737,253.493 250.982,252.504 252.076 M337.033 254.073 L 336.340 255.054 337.303 254.179 C 338.316 253.259,338.441 253.061,337.996 253.080 C 337.847 253.086,337.414 253.533,337.033 254.073 M57.040 255.957 C 57.464 256.552,57.892 257.040,57.991 257.040 C 58.091 257.040,57.825 256.552,57.401 255.957 C 56.977 255.361,56.548 254.874,56.449 254.874 C 56.350 254.874,56.616 255.361,57.040 255.957 M212.635 255.709 C 212.635 255.798,213.232 256.326,213.961 256.882 C 214.690 257.438,215.172 257.708,215.033 257.483 C 214.747 257.021,212.635 255.458,212.635 255.709 M266.426 256.679 C 266.002 257.274,265.736 257.762,265.835 257.762 C 265.935 257.762,266.363 257.274,266.787 256.679 C 267.211 256.083,267.477 255.596,267.378 255.596 C 267.278 255.596,266.850 256.083,266.426 256.679 M133.935 258.664 C 134.609 259.359,135.241 259.928,135.340 259.928 C 135.439 259.928,134.970 259.359,134.296 258.664 C 133.622 257.969,132.990 257.401,132.891 257.401 C 132.792 257.401,133.261 257.969,133.935 258.664 M152.708 257.532 C 152.708 257.631,153.195 258.060,153.791 258.484 C 154.386 258.908,154.874 259.174,154.874 259.074 C 154.874 258.975,154.386 258.547,153.791 258.123 C 153.195 257.699,152.708 257.433,152.708 257.532 M290.975 261.372 C 290.551 261.968,290.285 262.455,290.384 262.455 C 290.483 262.455,290.912 261.968,291.336 261.372 C 291.760 260.776,292.026 260.289,291.926 260.289 C 291.827 260.289,291.399 260.776,290.975 261.372 M260.091 263.628 L 258.664 265.162 260.199 263.735 C 261.625 262.408,261.899 262.094,261.626 262.094 C 261.567 262.094,260.876 262.784,260.091 263.628 M198.857 263.469 C 198.791 263.630,197.762 264.481,196.570 265.362 C 195.379 266.243,194.323 267.050,194.224 267.155 C 194.125 267.261,192.744 268.371,191.155 269.621 C 189.567 270.872,187.999 272.112,187.670 272.376 C 183.055 276.097,177.883 278.067,170.461 278.931 L 168.540 279.155 168.704 286.419 C 168.794 290.414,169.144 295.794,169.482 298.375 C 169.819 300.957,170.172 303.962,170.265 305.054 C 170.358 306.146,170.537 307.283,170.662 307.581 C 170.919 308.192,171.776 311.847,172.081 313.632 C 172.192 314.279,172.426 314.897,172.603 315.007 C 172.780 315.116,172.925 315.480,172.926 315.816 C 172.928 316.151,173.171 316.891,173.468 317.460 C 173.765 318.029,174.007 318.787,174.007 319.145 C 174.007 319.503,174.129 319.850,174.278 319.916 C 174.427 319.982,174.925 320.807,175.386 321.750 C 177.250 325.566,181.139 329.183,183.935 329.702 C 184.531 329.812,186.074 330.167,187.365 330.489 C 192.176 331.693,193.084 331.831,198.460 332.177 C 211.435 333.012,216.986 331.018,219.693 324.549 C 219.817 324.251,220.329 323.114,220.829 322.022 C 222.044 319.367,222.218 318.921,222.943 316.606 C 223.285 315.514,223.687 314.296,223.836 313.899 C 223.986 313.502,224.386 311.877,224.724 310.289 C 225.063 308.700,225.485 306.832,225.663 306.137 C 226.902 301.283,227.653 279.876,226.619 278.845 C 226.468 278.694,225.574 278.450,224.634 278.304 C 219.909 277.570,212.477 273.866,209.179 270.600 C 208.966 270.389,208.264 269.810,207.619 269.314 C 206.974 268.818,204.963 267.234,203.150 265.794 C 200.002 263.295,199.124 262.820,198.857 263.469 M166.456 264.751 C 166.539 264.822,167.094 264.989,167.690 265.123 C 168.480 265.300,168.627 265.266,168.231 264.998 C 167.744 264.669,166.094 264.438,166.456 264.751 M324.527 265.102 C 324.691 265.267,325.534 265.240,326.401 265.041 L 327.978 264.681 326.104 264.741 C 325.073 264.774,324.364 264.937,324.527 265.102 M240.517 279.061 C 240.517 279.756,240.591 280.041,240.682 279.693 C 240.773 279.346,240.773 278.777,240.682 278.430 C 240.591 278.082,240.517 278.366,240.517 279.061 M275.443 281.137 L 272.383 284.296 275.542 281.235 C 278.475 278.393,278.865 277.978,278.602 277.978 C 278.548 277.978,277.127 279.400,275.443 281.137 M270.916 285.289 L 269.856 286.462 271.029 285.402 C 271.674 284.819,272.202 284.291,272.202 284.228 C 272.202 283.950,271.904 284.195,270.916 285.289 M154.899 292.810 C 154.913 293.885,155.063 295.090,155.232 295.487 C 155.418 295.924,155.459 295.210,155.337 293.682 C 155.089 290.602,154.865 290.153,154.899 292.810 M240.524 298.736 C 240.528 299.531,240.602 299.813,240.689 299.364 C 240.775 298.915,240.772 298.265,240.681 297.920 C 240.591 297.575,240.520 297.942,240.524 298.736 M155.687 300.903 C 155.691 301.697,155.765 301.979,155.851 301.530 C 155.937 301.081,155.934 300.431,155.844 300.086 C 155.753 299.741,155.683 300.108,155.687 300.903 M239.802 304.152 C 239.806 304.946,239.880 305.228,239.967 304.779 C 240.053 304.330,240.050 303.680,239.959 303.335 C 239.869 302.990,239.798 303.357,239.802 304.152 M146.240 305.914 L 145.369 307.040 146.402 306.058 C 146.970 305.518,147.362 305.011,147.273 304.932 C 147.185 304.853,146.720 305.295,146.240 305.914 M156.684 308.153 C 156.687 308.533,156.855 309.088,157.056 309.386 C 157.324 309.782,157.357 309.636,157.180 308.845 C 156.883 307.517,156.677 307.229,156.684 308.153 "
              stroke="none" fill="#dd5d3e" fill-rule="evenodd"></path>
        <path id="path4"
              d="M185.902 15.397 C 185.595 15.481,183.483 15.682,181.209 15.846 L 177.076 16.142 180.144 16.167 C 181.832 16.180,185.081 15.979,187.365 15.719 C 191.146 15.289,191.291 15.247,188.989 15.247 C 187.599 15.246,186.210 15.314,185.902 15.397 M201.625 15.530 C 204.007 15.669,207.662 15.876,209.747 15.990 L 213.538 16.198 209.747 15.714 C 207.662 15.448,204.007 15.241,201.625 15.254 L 197.292 15.277 201.625 15.530 M174.188 16.606 C 173.144 16.872,173.158 16.883,174.549 16.919 C 175.343 16.940,176.236 16.799,176.534 16.606 C 177.198 16.177,175.874 16.177,174.188 16.606 M214.260 16.606 C 214.657 16.777,215.632 16.909,216.426 16.901 L 217.870 16.884 216.426 16.586 C 215.632 16.422,214.657 16.289,214.260 16.292 L 213.538 16.296 214.260 16.606 M169.314 17.329 C 168.818 17.487,167.843 17.636,167.148 17.659 C 166.453 17.682,165.153 17.943,164.260 18.240 C 162.859 18.705,162.809 18.752,163.899 18.581 C 164.594 18.471,166.300 18.227,167.690 18.038 C 169.079 17.849,170.704 17.545,171.300 17.362 L 172.383 17.030 171.300 17.035 C 170.704 17.037,169.810 17.170,169.314 17.329 M219.675 17.328 C 220.271 17.526,221.814 17.844,223.105 18.036 C 224.395 18.228,226.020 18.470,226.715 18.575 L 227.978 18.765 226.895 18.391 C 225.786 18.007,222.611 17.425,220.036 17.133 C 218.677 16.979,218.656 16.990,219.675 17.328 M160.650 19.086 C 160.352 19.246,159.149 19.599,157.976 19.868 C 156.803 20.138,156.050 20.428,156.303 20.512 C 156.555 20.597,157.434 20.464,158.255 20.217 C 161.615 19.206,162.598 18.829,161.913 18.812 C 161.516 18.802,160.948 18.926,160.650 19.086 M229.193 19.297 C 229.861 19.604,230.725 19.856,231.112 19.856 C 231.499 19.856,232.139 20.028,232.533 20.239 C 232.928 20.450,233.607 20.572,234.044 20.510 C 234.750 20.410,231.466 19.390,228.881 18.907 C 228.187 18.777,228.259 18.867,229.193 19.297 M149.278 22.415 C 146.498 23.392,143.531 24.433,142.685 24.728 C 137.050 26.695,125.701 32.130,120.637 35.285 C 118.542 36.591,117.517 36.992,115.761 37.193 L 113.538 37.446 115.631 37.496 C 117.435 37.538,117.986 37.378,119.616 36.335 C 122.283 34.629,124.774 33.275,129.964 30.711 C 132.446 29.485,134.759 28.328,135.103 28.140 C 135.448 27.952,135.890 27.798,136.086 27.798 C 136.282 27.798,137.300 27.407,138.348 26.930 C 139.395 26.452,141.431 25.640,142.870 25.125 C 144.310 24.609,146.584 23.791,147.924 23.305 C 149.264 22.820,151.255 22.157,152.347 21.832 C 153.439 21.506,154.657 21.102,155.054 20.933 L 155.776 20.626 155.054 20.632 C 154.657 20.636,152.058 21.438,149.278 22.415 M235.379 20.908 C 235.677 21.078,236.489 21.331,237.184 21.472 C 237.879 21.612,239.097 21.943,239.892 22.209 C 242.563 23.101,248.549 25.265,249.278 25.602 C 249.675 25.786,250.812 26.215,251.805 26.555 C 253.407 27.104,270.827 35.560,272.202 36.457 C 275.222 38.425,279.879 41.180,279.993 41.066 C 281.254 39.805,254.346 26.702,242.058 22.593 C 235.769 20.490,233.754 19.982,235.379 20.908 M191.645 27.970 C 191.550 28.065,188.558 28.307,184.996 28.509 C 178.696 28.866,176.745 29.070,171.119 29.961 C 168.235 30.418,167.149 30.656,163.718 31.581 C 162.527 31.902,160.984 32.311,160.289 32.491 C 148.702 35.488,133.403 41.950,126.188 46.895 C 123.219 48.929,121.365 49.606,118.051 49.864 C 114.375 50.150,112.308 50.591,108.681 51.865 C 103.127 53.815,97.272 56.657,93.014 59.469 C 85.571 64.384,73.873 74.800,68.592 81.215 C 67.699 82.300,66.155 84.107,65.162 85.229 C 60.901 90.047,54.326 99.409,49.466 107.581 C 49.288 107.879,48.368 109.422,47.420 111.011 C 46.472 112.599,45.389 114.468,45.013 115.162 C 41.269 122.078,36.885 130.689,34.810 135.199 C 34.079 136.787,32.794 139.549,31.954 141.336 C 30.463 144.509,29.462 146.740,28.879 148.195 C 28.719 148.592,27.905 150.623,27.069 152.708 C 26.234 154.792,25.265 157.148,24.916 157.942 C 24.567 158.736,24.160 159.792,24.010 160.289 C 23.861 160.785,23.619 161.354,23.474 161.552 C 23.328 161.751,23.115 162.238,23.001 162.635 C 22.886 163.032,22.530 164.251,22.209 165.343 C 20.898 169.809,20.651 171.106,20.425 174.729 C 19.848 183.986,22.774 198.317,27.252 208.159 C 27.785 209.330,28.475 210.857,28.785 211.552 C 29.950 214.162,33.236 220.818,34.132 222.383 C 34.644 223.276,35.624 225.063,36.311 226.354 C 36.998 227.644,37.922 229.280,38.365 229.988 C 44.462 239.740,54.116 253.326,59.510 259.747 C 59.844 260.144,60.867 261.444,61.785 262.635 C 66.236 268.416,70.127 269.536,73.648 266.050 C 75.058 264.654,75.772 263.269,83.215 247.473 C 84.057 245.686,85.576 242.484,86.590 240.357 C 89.322 234.631,89.324 234.979,86.472 223.466 C 85.711 220.391,85.208 218.124,84.990 216.787 C 84.734 215.216,83.755 209.504,83.382 207.401 C 83.001 205.256,82.033 198.326,81.793 196.029 C 81.308 191.379,80.508 182.565,80.384 180.505 C 80.306 179.215,80.299 180.677,80.367 183.755 C 80.491 189.340,80.676 191.449,81.731 199.278 C 82.450 204.612,82.860 207.315,83.592 211.552 C 83.917 213.439,84.318 215.794,84.482 216.787 C 84.646 217.780,85.046 219.648,85.370 220.939 C 85.693 222.229,86.104 223.935,86.282 224.729 C 86.460 225.523,86.939 227.458,87.346 229.029 C 88.584 233.805,88.406 235.455,86.145 240.173 C 81.453 249.958,79.980 253.055,78.810 255.596 C 73.778 266.516,72.513 267.884,68.018 267.268 C 66.226 267.022,64.718 265.819,62.442 262.816 C 61.764 261.922,61.124 261.110,61.018 261.011 C 60.913 260.912,60.096 259.871,59.204 258.699 C 58.311 257.528,57.058 255.903,56.419 255.089 C 52.101 249.594,41.114 233.719,38.030 228.520 C 36.007 225.109,30.528 214.520,29.439 211.913 C 29.065 211.020,28.291 209.240,27.719 207.959 C 26.275 204.724,23.632 196.754,22.926 193.502 C 22.602 192.013,22.194 190.307,22.019 189.711 C 20.536 184.673,20.535 169.724,22.018 167.690 C 22.163 167.491,22.387 166.771,22.516 166.090 C 22.713 165.056,25.224 158.312,26.356 155.776 C 26.534 155.379,27.598 152.780,28.721 150.000 C 29.843 147.220,31.692 142.996,32.829 140.614 C 33.966 138.231,35.290 135.389,35.770 134.297 C 37.715 129.875,44.914 116.086,47.549 111.733 C 47.789 111.336,48.106 110.767,48.252 110.469 C 48.398 110.171,49.461 108.430,50.613 106.599 C 51.765 104.768,52.708 103.187,52.708 103.086 C 52.708 102.638,62.763 88.734,64.755 86.427 C 65.972 85.018,67.686 82.988,68.565 81.915 C 70.116 80.020,74.340 75.757,79.812 70.562 C 82.210 68.286,90.054 61.733,90.381 61.733 C 90.452 61.733,91.955 60.783,93.721 59.622 C 95.487 58.462,97.987 57.022,99.278 56.422 C 100.569 55.823,102.356 54.988,103.249 54.567 C 108.435 52.125,113.760 50.642,118.835 50.226 C 121.881 49.977,122.069 49.906,125.695 47.656 C 132.659 43.333,141.706 39.019,148.375 36.841 C 150.262 36.226,152.130 35.580,152.527 35.408 C 152.924 35.236,153.980 34.855,154.874 34.561 C 156.466 34.039,156.971 33.899,161.733 32.660 C 163.023 32.324,164.486 31.917,164.982 31.756 C 170.521 29.957,184.218 28.586,197.834 28.467 C 205.387 28.401,205.842 28.366,201.986 28.145 C 196.453 27.827,191.866 27.749,191.645 27.970 M208.484 28.882 C 209.675 29.044,211.868 29.363,213.357 29.590 C 217.532 30.227,220.039 30.408,218.412 29.954 C 216.423 29.400,211.986 28.802,209.025 28.690 L 206.318 28.587 208.484 28.882 M222.022 30.908 C 223.312 31.193,224.937 31.581,225.632 31.769 C 229.757 32.885,231.383 33.320,232.671 33.652 C 235.036 34.261,237.677 35.049,238.448 35.376 C 238.845 35.544,240.347 36.101,241.787 36.614 C 243.227 37.126,245.582 37.970,247.022 38.489 C 252.410 40.431,266.108 47.486,271.841 51.272 C 272.139 51.468,272.626 51.740,272.924 51.875 C 273.222 52.010,274.603 52.856,275.993 53.755 L 278.520 55.389 283.935 55.659 C 286.913 55.807,290.081 56.088,290.975 56.283 C 291.868 56.478,293.340 56.798,294.245 56.995 C 295.734 57.319,296.467 57.567,298.736 58.514 C 299.134 58.680,300.463 59.212,301.691 59.698 C 302.919 60.183,305.331 61.408,307.050 62.420 C 308.769 63.432,310.284 64.260,310.417 64.260 C 310.549 64.260,311.062 64.629,311.556 65.079 C 312.050 65.530,313.995 67.024,315.878 68.399 C 324.413 74.634,331.371 82.151,340.116 94.585 C 343.967 100.061,345.157 101.957,348.609 108.123 C 349.276 109.314,349.979 110.532,350.173 110.830 C 351.195 112.405,358.667 127.883,360.280 131.769 C 361.310 134.251,362.384 136.753,362.665 137.330 C 362.947 137.906,363.177 138.511,363.177 138.674 C 363.177 138.836,363.561 139.827,364.031 140.875 C 365.080 143.214,365.730 144.873,366.970 148.375 C 367.497 149.865,368.060 151.408,368.222 151.805 C 368.383 152.202,368.789 153.339,369.123 154.332 C 369.458 155.325,369.874 156.462,370.048 156.859 C 370.590 158.094,372.066 162.870,372.782 165.704 C 373.595 168.922,373.692 180.951,372.936 184.657 C 371.478 191.800,368.642 201.112,366.496 205.809 C 365.914 207.082,365.078 208.935,364.637 209.928 C 364.196 210.921,362.937 213.520,361.838 215.704 C 360.041 219.277,359.345 220.586,356.942 224.910 C 355.649 227.236,353.695 230.491,352.655 232.050 C 352.088 232.900,351.625 233.668,351.625 233.758 C 351.625 234.671,335.342 257.266,332.658 260.077 C 332.453 260.293,331.838 261.060,331.293 261.782 C 329.474 264.191,325.132 266.218,324.384 265.007 C 324.253 264.795,323.808 264.621,323.397 264.621 C 321.724 264.621,320.173 262.169,315.517 252.166 C 314.871 250.776,313.327 247.527,312.087 244.946 C 305.913 232.097,306.083 232.630,307.012 228.956 C 307.349 227.624,307.787 225.803,307.985 224.910 C 308.184 224.016,308.593 222.310,308.895 221.119 C 309.197 219.928,309.586 218.384,309.761 217.690 C 310.041 216.573,310.542 213.797,311.555 207.762 C 311.721 206.769,312.048 204.901,312.280 203.610 C 312.686 201.354,313.017 198.802,313.710 192.599 C 313.887 191.011,314.219 188.087,314.447 186.101 C 314.974 181.518,314.982 159.575,314.459 155.957 C 314.243 154.468,313.977 152.031,313.866 150.542 C 313.679 148.023,313.034 144.619,312.257 142.058 C 312.077 141.462,311.667 139.849,311.346 138.472 C 311.026 137.096,310.278 134.659,309.684 133.057 C 309.091 131.455,308.359 129.413,308.057 128.520 C 306.266 123.205,302.462 120.827,298.510 122.553 C 294.209 124.431,293.467 127.646,295.840 134.116 C 297.556 138.793,297.980 140.118,298.666 142.960 C 299.506 146.435,299.632 147.088,300.350 151.625 C 300.932 155.300,301.012 155.541,301.045 153.728 C 301.087 151.462,300.553 148.648,298.383 139.711 C 298.239 139.116,296.874 135.261,296.403 134.116 C 294.010 128.305,294.513 125.069,298.082 123.307 C 302.380 121.185,305.666 123.078,307.569 128.769 C 308.021 130.121,308.505 131.390,308.646 131.588 C 308.920 131.978,310.549 137.172,311.136 139.531 C 311.333 140.325,311.745 141.949,312.050 143.141 C 313.597 149.173,314.205 156.099,314.348 169.314 C 314.471 180.793,314.379 182.779,313.311 191.697 C 313.109 193.384,312.802 196.065,312.629 197.653 C 312.456 199.242,312.060 202.004,311.748 203.791 C 311.436 205.578,311.030 208.014,310.847 209.206 C 310.307 212.711,309.201 218.064,308.126 222.383 C 305.651 232.321,305.651 232.658,308.099 237.726 C 310.522 242.739,313.493 248.961,315.081 252.347 C 319.165 261.051,319.906 262.457,321.048 263.668 C 321.730 264.391,322.624 264.982,323.036 264.982 C 323.447 264.982,323.885 265.144,324.007 265.343 C 325.083 267.084,329.717 264.874,332.146 261.461 C 332.816 260.518,333.555 259.585,333.787 259.386 C 334.546 258.737,340.225 251.213,344.823 244.765 C 348.726 239.293,350.226 237.057,352.227 233.733 C 352.459 233.348,353.537 231.570,354.622 229.783 C 355.708 227.996,356.913 225.966,357.300 225.271 C 359.670 221.020,360.405 219.658,362.169 216.245 C 363.247 214.161,364.505 211.561,364.964 210.469 C 365.423 209.377,366.201 207.604,366.692 206.528 C 367.597 204.547,370.326 197.174,370.645 195.848 C 370.740 195.451,370.949 194.801,371.110 194.404 C 371.270 194.007,371.683 192.383,372.029 190.794 C 372.374 189.206,372.790 187.500,372.952 187.004 C 374.266 182.993,374.463 170.512,373.288 165.704 C 373.070 164.810,372.750 163.511,372.577 162.816 C 372.304 161.721,370.458 156.429,368.736 151.805 C 368.440 151.011,367.898 149.468,367.531 148.375 C 367.165 147.283,366.665 145.903,366.420 145.307 C 366.175 144.711,365.849 143.899,365.696 143.502 C 365.542 143.105,365.145 142.130,364.814 141.336 C 364.482 140.542,364.076 139.567,363.911 139.170 C 363.746 138.773,363.340 137.798,363.009 137.004 C 362.677 136.209,362.271 135.235,362.106 134.838 C 361.941 134.440,361.546 133.522,361.228 132.797 C 360.910 132.072,360.650 131.387,360.650 131.274 C 360.650 130.653,352.677 114.336,350.131 109.747 C 345.853 102.035,337.322 89.041,334.932 86.597 C 334.665 86.324,334.210 85.763,333.920 85.349 C 330.821 80.926,321.361 71.759,315.317 67.323 C 311.942 64.846,308.408 62.455,308.121 62.455 C 308.029 62.455,307.175 61.976,306.223 61.390 C 305.272 60.805,303.036 59.734,301.254 59.011 C 299.472 58.288,297.690 57.562,297.292 57.398 C 296.895 57.233,295.433 56.831,294.043 56.503 C 292.653 56.176,290.929 55.756,290.211 55.571 C 289.493 55.386,286.793 55.235,284.212 55.235 L 279.518 55.235 277.033 53.769 C 273.793 51.857,274.032 52.000,269.856 49.468 C 267.870 48.264,266.002 47.119,265.704 46.923 C 264.702 46.265,250.013 39.088,248.736 38.633 C 248.042 38.385,246.961 37.958,246.335 37.683 C 245.710 37.409,244.948 37.184,244.642 37.184 C 244.336 37.184,243.998 37.041,243.889 36.866 C 243.781 36.691,243.325 36.467,242.875 36.367 C 242.426 36.267,240.677 35.705,238.989 35.117 C 235.915 34.047,233.207 33.227,230.505 32.550 C 225.919 31.399,224.253 30.965,223.260 30.663 C 222.650 30.477,221.594 30.339,220.913 30.357 C 219.952 30.382,220.199 30.505,222.022 30.908 M109.417 38.298 C 106.973 38.929,105.109 39.728,107.220 39.240 C 107.717 39.126,109.250 38.774,110.629 38.460 C 112.007 38.146,113.212 37.811,113.306 37.717 C 113.643 37.380,112.052 37.618,109.417 38.298 M102.991 40.260 C 95.288 42.775,82.509 50.412,76.194 56.272 C 74.748 57.615,76.049 56.699,79.783 53.744 C 86.858 48.147,96.802 42.614,103.430 40.587 C 104.621 40.222,105.750 39.795,105.939 39.637 C 106.468 39.194,105.856 39.324,102.991 40.260 M280.508 41.438 C 280.517 42.451,282.869 42.959,287.304 42.906 L 291.877 42.852 288.448 42.568 C 286.561 42.413,284.567 42.370,284.017 42.473 C 283.375 42.593,282.565 42.395,281.760 41.920 C 281.070 41.513,280.506 41.296,280.508 41.438 M292.419 43.321 C 292.717 43.514,293.366 43.658,293.863 43.641 L 294.765 43.610 293.863 43.321 C 292.471 42.876,291.729 42.876,292.419 43.321 M296.209 44.234 C 297.004 44.520,297.981 44.757,298.381 44.760 C 298.780 44.763,299.999 45.106,301.088 45.523 C 302.177 45.940,303.437 46.366,303.886 46.469 C 304.336 46.572,304.792 46.800,304.900 46.975 C 305.008 47.149,305.326 47.292,305.607 47.292 C 306.609 47.292,312.845 50.552,317.666 53.595 C 324.270 57.764,335.275 67.480,339.719 73.064 C 340.807 74.431,342.353 76.299,343.154 77.215 C 344.535 78.793,347.193 82.246,348.375 83.998 C 348.673 84.440,350.176 86.515,351.715 88.610 C 353.254 90.705,354.513 92.498,354.513 92.593 C 354.513 92.688,355.041 93.626,355.686 94.677 C 357.578 97.759,357.678 97.930,358.687 99.819 C 359.217 100.812,359.816 101.829,360.017 102.079 C 360.528 102.714,361.928 105.254,362.949 107.401 C 363.422 108.394,365.291 112.225,367.103 115.916 C 368.915 119.607,370.397 122.722,370.397 122.839 C 370.397 122.956,370.984 124.322,371.701 125.874 C 372.418 127.426,373.301 129.449,373.663 130.368 C 374.296 131.974,374.886 133.327,376.756 137.465 C 377.230 138.513,377.617 139.484,377.617 139.623 C 377.617 139.857,379.097 144.005,379.774 145.668 C 380.037 146.314,381.033 149.192,381.447 150.503 C 381.534 150.780,381.684 150.927,381.781 150.830 C 381.877 150.734,381.294 148.802,380.485 146.537 C 379.676 144.272,378.676 141.444,378.263 140.253 C 377.850 139.061,377.053 137.077,376.491 135.842 C 375.930 134.608,375.043 132.577,374.522 131.329 C 374.000 130.082,373.166 128.168,372.668 127.076 C 372.171 125.984,371.472 124.359,371.115 123.466 C 369.458 119.319,362.316 105.281,358.717 99.097 C 341.927 70.254,319.104 49.555,298.256 44.262 C 295.441 43.548,294.259 43.531,296.209 44.234 M72.563 59.013 C 71.273 60.076,68.023 63.193,65.343 65.940 C 60.700 70.698,62.405 69.205,68.718 62.985 C 70.336 61.390,72.432 59.535,73.375 58.862 C 74.319 58.190,75.090 57.504,75.090 57.340 C 75.090 56.920,75.163 56.872,72.563 59.013 M56.859 75.155 C 55.271 77.158,53.073 79.952,51.976 81.365 C 49.170 84.979,42.075 94.911,41.372 96.209 C 41.049 96.805,40.626 97.536,40.433 97.834 C 40.239 98.132,38.888 100.325,37.432 102.708 C 34.950 106.767,33.852 108.752,29.194 117.599 C 28.174 119.535,27.200 121.273,27.028 121.462 C 26.606 121.924,26.629 122.478,27.059 122.213 C 27.248 122.096,28.032 120.746,28.800 119.213 C 29.569 117.680,30.694 115.532,31.300 114.440 C 31.906 113.348,33.141 111.049,34.044 109.332 C 34.947 107.614,37.047 104.040,38.709 101.389 C 40.372 98.739,41.847 96.327,41.988 96.029 C 42.524 94.896,43.748 93.023,45.222 91.080 C 46.063 89.972,48.132 87.175,49.819 84.865 C 52.735 80.875,54.952 78.041,58.394 73.908 C 59.681 72.361,60.245 71.420,59.838 71.497 C 59.788 71.507,58.448 73.153,56.859 75.155 M141.137 122.850 C 133.071 125.145,129.183 135.492,133.760 142.478 C 136.111 146.066,140.915 148.733,143.173 147.705 C 143.670 147.478,144.537 147.292,145.099 147.292 C 146.686 147.292,151.929 145.092,154.732 143.249 C 157.612 141.356,157.055 130.912,153.825 126.226 C 151.674 123.107,145.763 121.534,141.137 122.850 M259.530 122.697 C 256.415 123.360,253.601 125.945,252.636 129.031 C 251.410 132.951,250.905 139.297,251.649 141.430 C 252.308 143.323,259.919 147.292,262.889 147.292 C 263.426 147.292,264.279 147.481,264.784 147.711 C 265.492 148.034,266.057 148.024,267.238 147.670 C 274.236 145.572,277.869 138.066,275.307 131.001 C 272.987 124.605,266.531 121.208,259.530 122.697 M26.062 123.557 C 24.330 126.963,18.809 139.146,18.939 139.276 C 19.028 139.365,19.579 138.403,20.163 137.138 C 20.747 135.873,21.824 133.538,22.557 131.949 C 25.359 125.877,26.074 124.347,26.414 123.701 C 26.607 123.334,26.700 122.969,26.620 122.890 C 26.540 122.810,26.289 123.110,26.062 123.557 M150.587 124.099 C 154.320 126.036,155.604 129.102,155.838 136.643 C 156.005 142.026,155.994 142.074,154.332 143.064 C 147.781 146.967,141.261 148.205,138.071 146.151 C 131.425 141.874,130.225 132.219,135.669 126.829 C 137.269 125.245,138.542 124.188,138.848 124.188 C 138.965 124.188,139.572 123.952,140.198 123.663 C 142.806 122.461,147.835 122.672,150.587 124.099 M268.763 124.131 C 275.176 127.558,277.506 135.129,274.112 141.513 C 270.733 147.870,264.950 148.850,256.498 144.499 C 255.108 143.784,253.607 143.023,253.161 142.809 C 251.179 141.854,251.724 131.422,253.984 127.051 C 256.018 123.118,263.938 121.553,268.763 124.131 M92.960 124.347 C 92.762 124.423,92.157 124.583,91.617 124.702 C 90.796 124.883,87.726 127.424,87.726 127.923 C 87.726 128.007,87.232 129.435,86.628 131.096 C 84.700 136.401,83.865 139.098,83.232 142.058 C 82.892 143.646,82.466 145.514,82.285 146.209 C 81.935 147.555,81.038 153.142,80.691 156.137 C 80.576 157.130,80.425 160.217,80.355 162.996 L 80.228 168.051 80.527 163.718 C 80.938 157.755,81.952 149.729,82.670 146.751 C 83.190 144.597,83.537 143.097,84.133 140.433 C 84.618 138.267,85.587 135.100,86.288 133.394 C 86.891 131.926,87.192 131.150,87.901 129.242 C 89.915 123.826,97.056 123.100,99.325 128.080 C 100.385 130.409,100.080 132.737,98.022 138.026 C 97.108 140.376,96.186 143.137,95.974 144.163 C 95.100 148.393,94.735 150.372,93.866 155.596 C 91.927 167.251,93.095 191.622,96.399 208.412 C 96.626 209.564,96.958 211.432,97.138 212.564 C 97.467 214.638,97.637 215.434,98.730 220.036 C 99.060 221.426,99.465 223.132,99.630 223.827 C 102.266 234.954,102.119 236.992,98.060 245.536 C 96.281 249.281,96.280 249.263,98.691 253.568 C 100.660 257.083,105.527 264.174,107.908 266.995 C 108.423 267.606,109.332 268.737,109.928 269.509 C 118.609 280.760,129.936 289.976,140.391 294.296 C 146.453 296.801,147.914 298.607,147.191 302.708 C 146.510 306.580,141.163 309.112,138.440 306.853 C 138.165 306.625,137.649 306.496,137.292 306.567 C 136.935 306.637,137.699 307.030,138.989 307.439 C 145.865 309.620,151.055 302.162,146.221 297.047 C 145.438 296.218,141.284 293.863,140.606 293.863 C 140.053 293.863,134.585 291.056,131.949 289.418 C 124.637 284.877,117.082 277.775,109.791 268.592 C 108.136 266.507,106.515 264.476,106.189 264.078 C 105.013 262.644,99.350 253.924,98.244 251.844 C 96.835 249.197,96.834 249.209,98.415 245.922 C 102.390 237.659,102.720 234.119,100.374 224.910 C 100.197 224.215,99.788 222.509,99.465 221.119 C 99.143 219.729,98.737 218.023,98.563 217.329 C 98.130 215.597,97.486 212.323,97.048 209.638 C 96.848 208.408,96.551 206.588,96.389 205.596 C 95.835 202.201,95.294 198.376,94.960 195.487 C 94.776 193.899,94.442 191.137,94.216 189.350 C 93.575 184.273,93.333 164.375,93.863 160.289 C 94.107 158.403,94.444 155.641,94.610 154.152 C 94.777 152.662,95.166 150.307,95.474 148.917 C 95.783 147.527,96.186 145.578,96.369 144.585 C 96.552 143.592,97.606 140.396,98.712 137.483 C 100.977 131.517,101.095 130.494,99.822 127.938 C 98.496 125.278,95.130 123.517,92.960 124.347 M14.797 148.635 C 11.194 157.319,9.732 161.339,9.772 162.455 C 9.783 162.753,10.041 162.184,10.346 161.191 C 11.025 158.977,12.426 155.334,13.578 152.788 C 14.052 151.740,14.440 150.755,14.440 150.599 C 14.440 150.443,14.847 149.474,15.343 148.445 C 15.839 147.416,16.245 146.339,16.245 146.052 C 16.245 145.765,16.408 145.430,16.606 145.307 C 16.805 145.184,16.968 144.854,16.968 144.573 C 16.968 144.293,17.395 143.160,17.918 142.055 C 18.441 140.951,18.788 139.967,18.689 139.868 C 18.590 139.770,16.839 143.715,14.797 148.635 M381.964 151.527 C 381.951 151.922,382.554 153.714,383.394 155.776 C 383.555 156.173,383.895 157.302,384.149 158.284 C 384.402 159.266,384.677 159.869,384.758 159.625 C 384.840 159.380,384.478 157.889,383.955 156.312 C 382.845 152.966,381.984 150.896,381.964 151.527 M301.374 160.830 C 301.684 167.077,301.678 175.061,301.357 181.949 C 301.152 186.376,301.175 186.822,301.510 184.838 C 302.051 181.628,302.071 160.746,301.536 157.942 C 301.181 156.082,301.158 156.491,301.374 160.830 M384.868 160.830 C 384.858 161.227,385.006 161.796,385.199 162.094 C 385.662 162.812,385.662 161.910,385.199 160.830 L 384.888 160.108 384.868 160.830 M385.787 164.260 C 385.904 165.153,386.126 166.940,386.280 168.231 L 386.561 170.578 386.468 167.870 C 386.417 166.381,386.195 164.594,385.974 163.899 C 385.579 162.652,385.577 162.656,385.787 164.260 M9.206 163.899 C 9.070 164.326,9.041 164.757,9.140 164.856 C 9.239 164.955,9.431 164.687,9.567 164.260 C 9.702 163.833,9.732 163.402,9.633 163.303 C 9.533 163.204,9.341 163.472,9.206 163.899 M8.397 167.148 C 7.165 172.816,7.227 183.561,8.522 188.809 C 8.993 190.717,9.005 190.731,8.829 189.170 C 8.565 186.833,7.997 180.244,7.895 178.339 C 7.761 175.822,8.317 168.523,8.724 167.447 C 8.925 166.917,9.031 166.186,8.959 165.823 C 8.887 165.460,8.635 166.056,8.397 167.148 M79.925 173.285 C 79.925 175.966,79.982 177.062,80.051 175.722 C 80.121 174.382,80.121 172.189,80.051 170.848 C 79.982 169.508,79.925 170.605,79.925 173.285 M386.773 175.090 C 386.773 176.977,386.834 177.748,386.908 176.805 C 386.982 175.862,386.982 174.319,386.908 173.375 C 386.834 172.432,386.773 173.204,386.773 175.090 M386.334 180.505 C 386.291 181.399,386.009 183.592,385.707 185.379 C 384.771 190.922,384.771 190.922,385.189 189.963 C 385.817 188.519,386.694 182.532,386.550 180.669 L 386.412 178.881 386.334 180.505 M177.076 180.595 C 171.656 181.944,168.274 185.294,166.052 191.516 C 165.910 191.913,165.596 192.726,165.354 193.321 C 165.112 193.917,164.669 195.135,164.370 196.029 C 164.072 196.922,163.611 198.141,163.346 198.736 C 163.081 199.332,162.625 200.551,162.333 201.444 C 162.040 202.338,161.603 203.556,161.361 204.152 C 161.119 204.747,160.790 205.560,160.630 205.957 C 159.252 209.376,159.362 211.746,161.002 214.010 C 162.245 215.726,162.319 215.765,172.383 219.960 L 180.325 223.270 183.935 223.236 C 185.921 223.217,187.976 223.028,188.503 222.814 C 189.653 222.349,210.257 222.921,212.316 223.475 C 215.595 224.358,218.868 223.585,224.776 220.532 C 227.133 219.314,230.671 217.485,232.639 216.469 C 238.257 213.567,240.413 210.584,239.328 207.216 C 238.687 205.226,236.022 198.772,235.684 198.394 C 235.516 198.205,235.379 197.844,235.379 197.591 C 235.379 197.338,234.956 196.193,234.439 195.046 C 233.922 193.899,233.370 192.635,233.212 192.238 C 230.114 184.460,227.086 181.492,221.270 180.535 C 218.207 180.031,179.129 180.084,177.076 180.595 M211.191 180.972 L 223.285 181.080 225.099 182.018 C 228.145 183.593,230.592 186.956,232.927 192.780 C 233.384 193.918,234.010 195.378,234.980 197.559 C 235.398 198.500,235.740 199.362,235.740 199.474 C 235.740 199.587,236.088 200.441,236.513 201.374 C 238.798 206.386,239.146 207.738,238.764 210.128 C 238.426 212.238,236.708 213.850,232.485 216.018 C 230.602 216.984,226.949 218.882,224.368 220.234 C 221.787 221.585,219.253 222.703,218.736 222.718 C 218.220 222.732,217.290 222.921,216.670 223.137 C 215.841 223.426,215.038 223.415,213.638 223.097 C 208.710 221.979,191.247 221.367,188.671 222.222 C 184.844 223.492,180.832 223.046,175.632 220.771 C 175.036 220.511,172.843 219.612,170.758 218.775 C 160.972 214.843,159.945 213.880,160.383 209.051 C 160.486 207.910,160.741 206.665,160.949 206.286 C 161.157 205.906,161.759 204.377,162.287 202.888 C 162.815 201.399,163.450 199.693,163.699 199.097 C 163.948 198.502,164.355 197.446,164.603 196.751 C 165.117 195.314,165.427 194.505,166.054 192.960 C 166.296 192.365,166.739 191.158,167.038 190.278 C 169.748 182.306,173.638 180.635,189.170 180.775 C 194.630 180.824,204.540 180.913,211.191 180.972 M300.407 191.245 C 299.620 198.487,298.812 203.785,297.818 208.218 C 297.628 209.065,297.473 210.164,297.473 210.660 C 297.473 211.157,297.216 212.576,296.902 213.814 C 296.589 215.052,296.188 216.634,296.011 217.329 C 293.124 228.691,292.685 232.209,293.668 236.101 C 294.490 239.360,294.771 240.109,296.580 243.872 C 298.890 248.679,298.838 249.166,295.430 254.596 C 294.965 255.336,294.585 256.030,294.585 256.137 C 294.585 256.244,293.610 257.814,292.419 259.625 C 291.227 261.437,290.253 262.975,290.253 263.044 C 290.253 263.112,290.017 263.455,289.728 263.805 C 289.440 264.154,288.506 265.435,287.653 266.650 C 281.798 274.987,275.192 282.233,269.134 286.966 C 267.545 288.206,266.002 289.413,265.704 289.648 C 263.744 291.193,259.800 293.276,254.874 295.368 C 254.377 295.579,253.727 295.896,253.430 296.072 C 253.132 296.248,252.563 296.537,252.166 296.715 C 248.131 298.525,248.030 305.187,251.998 307.813 C 253.694 308.935,256.483 309.108,258.501 308.217 C 259.186 307.914,260.316 307.457,261.011 307.201 C 264.756 305.821,274.541 300.098,275.326 298.827 C 275.476 298.585,274.772 298.993,273.762 299.735 C 272.752 300.476,271.825 301.083,271.703 301.083 C 271.582 301.083,270.710 301.627,269.766 302.291 C 268.268 303.346,262.913 306.079,260.830 306.852 C 260.433 307.000,259.494 307.386,258.742 307.712 C 254.166 309.693,249.458 306.812,249.458 302.030 C 249.458 299.231,251.036 297.516,255.235 295.751 C 257.805 294.670,262.651 292.247,262.756 291.991 C 262.822 291.829,263.024 291.697,263.206 291.697 C 263.708 291.697,268.423 288.259,271.661 285.533 C 274.754 282.928,279.797 277.624,283.135 273.466 C 286.216 269.628,294.224 258.126,294.224 257.539 C 294.224 257.425,294.526 256.900,294.895 256.373 C 295.561 255.422,297.497 252.016,298.482 250.064 C 299.168 248.704,298.926 247.729,296.770 243.180 C 295.767 241.064,294.946 239.044,294.946 238.692 C 294.946 238.339,294.793 237.896,294.606 237.708 C 294.419 237.519,294.105 236.065,293.908 234.477 C 293.420 230.545,293.787 228.284,297.133 214.621 C 297.628 212.599,298.235 209.530,298.561 207.401 C 298.714 206.408,299.112 204.134,299.448 202.347 C 300.258 198.030,301.366 187.365,301.003 187.365 C 300.907 187.365,300.639 189.111,300.407 191.245 M9.175 192.058 C 9.315 192.753,9.576 194.134,9.755 195.126 C 9.934 196.119,10.250 197.419,10.456 198.014 L 10.831 199.097 10.656 197.834 C 10.329 195.459,9.403 191.232,9.162 191.013 C 9.030 190.893,9.036 191.363,9.175 192.058 M384.173 192.729 C 383.943 193.498,383.755 194.405,383.755 194.745 C 383.755 195.429,380.316 205.951,379.768 206.945 C 379.578 207.289,379.422 207.732,379.422 207.927 C 379.422 208.123,378.997 209.222,378.476 210.369 C 377.956 211.516,377.320 212.942,377.064 213.538 C 374.732 218.945,374.139 220.198,372.620 222.924 C 371.956 224.116,370.524 226.796,369.439 228.881 C 368.353 230.966,367.315 232.915,367.133 233.213 C 366.950 233.511,365.823 235.334,364.628 237.264 C 363.433 239.194,362.455 240.870,362.455 240.989 C 362.455 241.107,362.049 241.736,361.552 242.387 C 361.056 243.037,360.650 243.688,360.650 243.833 C 360.650 244.225,350.379 258.569,347.660 261.973 C 344.584 265.826,341.830 269.358,341.374 270.036 C 340.215 271.759,344.056 267.143,347.834 262.272 C 348.430 261.504,349.414 260.297,350.021 259.589 C 356.571 251.963,371.262 227.752,376.323 216.245 C 379.729 208.500,383.311 198.529,384.468 193.571 C 384.994 191.317,384.780 190.705,384.173 192.729 M10.830 199.463 C 10.830 199.912,14.482 210.705,14.799 211.191 C 15.110 211.669,15.152 211.666,15.157 211.173 C 15.160 210.866,15.027 210.459,14.861 210.271 C 14.696 210.082,14.107 208.466,13.553 206.679 C 13.000 204.892,12.415 203.105,12.255 202.708 C 12.095 202.310,11.777 201.376,11.550 200.632 C 11.191 199.461,10.830 198.874,10.830 199.463 M15.280 212.365 C 18.835 220.598,20.665 224.315,25.368 232.852 C 28.911 239.285,38.363 253.579,43.630 260.469 C 53.605 273.519,61.166 281.192,62.620 279.739 C 62.709 279.650,61.742 279.033,60.471 278.368 C 57.971 277.059,54.309 273.527,50.897 269.134 C 49.817 267.744,48.848 266.525,48.743 266.426 C 48.638 266.327,48.108 265.650,47.567 264.923 C 47.025 264.196,46.369 263.383,46.111 263.118 C 45.499 262.491,33.935 246.277,33.935 246.047 C 33.935 245.950,33.309 244.932,32.543 243.784 C 31.778 242.636,30.438 240.554,29.565 239.157 C 28.692 237.761,27.776 236.299,27.530 235.908 C 27.283 235.518,26.521 234.143,25.837 232.852 C 25.153 231.561,24.177 229.774,23.669 228.881 C 22.640 227.070,18.412 218.570,17.564 216.606 C 17.264 215.910,16.688 214.570,16.284 213.627 C 15.880 212.685,15.445 211.913,15.317 211.913 C 15.190 211.913,15.173 212.116,15.280 212.365 M127.707 219.011 C 124.902 220.489,123.866 223.433,123.843 229.988 C 123.824 235.257,124.716 241.010,126.072 244.359 C 129.296 252.326,132.147 256.687,137.906 262.457 C 142.611 267.171,152.829 274.729,154.496 274.729 C 154.657 274.729,154.882 278.994,154.996 284.206 C 155.201 293.608,155.580 299.264,156.285 303.430 C 156.487 304.621,156.837 306.814,157.064 308.303 C 157.290 309.792,157.702 311.742,157.980 312.635 C 158.257 313.529,158.729 315.072,159.028 316.065 C 159.742 318.436,159.445 316.330,158.671 313.538 C 158.340 312.347,157.928 310.478,157.753 309.386 C 157.579 308.294,157.179 305.776,156.865 303.791 C 156.057 298.689,155.519 290.897,155.395 282.491 C 155.336 278.520,155.276 275.153,155.262 275.009 C 155.247 274.865,154.057 274.052,152.617 273.204 C 137.658 264.386,128.128 252.555,125.203 239.170 C 124.463 235.787,124.552 223.606,125.327 222.202 C 127.195 218.816,131.415 217.908,134.634 220.200 C 136.527 221.548,136.717 222.332,136.921 229.603 C 137.315 243.669,144.355 254.196,158.664 262.116 C 169.577 268.156,172.269 267.593,186.698 256.254 C 194.297 250.282,193.502 252.042,193.502 241.191 L 193.502 232.260 194.753 230.798 C 197.735 227.314,201.867 227.367,204.582 230.924 L 205.596 232.252 205.776 241.660 L 205.957 251.069 210.108 254.424 C 224.023 265.668,225.689 266.430,233.394 265.072 C 235.584 264.686,237.906 263.859,237.906 263.465 C 237.906 263.307,238.085 263.177,238.303 263.177 C 239.033 263.177,244.694 259.654,247.180 257.653 C 258.396 248.623,263.091 239.197,262.253 227.390 C 261.736 220.090,267.384 216.081,272.239 220.302 C 274.550 222.312,275.562 232.436,274.071 238.628 C 271.755 248.246,267.910 255.177,261.160 261.902 C 256.057 266.987,244.226 275.451,242.222 275.451 C 242.065 275.451,241.421 275.736,240.792 276.083 L 239.649 276.715 239.948 278.881 C 240.113 280.072,240.245 284.621,240.241 288.989 C 240.232 298.439,239.663 303.723,237.712 312.455 C 236.827 316.414,236.704 317.423,237.314 315.704 C 239.678 309.048,240.941 298.047,240.724 285.998 L 240.556 276.673 242.209 275.990 C 250.815 272.437,265.603 259.879,268.352 253.791 C 268.487 253.493,269.005 252.599,269.504 251.805 C 275.028 243.008,277.371 226.414,273.814 221.281 C 271.381 217.771,266.264 217.360,263.538 220.455 C 261.848 222.375,261.733 222.858,261.732 228.064 C 261.731 240.857,257.863 248.503,247.012 257.157 C 244.780 258.937,237.517 263.538,236.939 263.538 C 236.836 263.538,236.240 263.770,235.614 264.055 C 234.988 264.339,233.745 264.650,232.852 264.745 C 231.958 264.840,230.764 265.036,230.199 265.179 C 229.231 265.425,225.743 264.877,224.549 264.292 C 222.247 263.163,218.401 260.604,216.847 259.167 C 216.483 258.830,214.632 257.360,212.734 255.902 C 210.836 254.443,208.575 252.582,207.710 251.766 L 206.137 250.282 206.137 241.471 C 206.137 233.579,206.067 232.530,205.467 231.411 C 202.986 226.785,197.002 226.644,193.798 231.136 C 192.983 232.279,192.957 232.558,192.839 241.601 L 192.717 250.891 191.575 251.824 C 190.178 252.966,190.123 253.010,186.101 256.133 C 184.314 257.520,182.608 258.860,182.310 259.109 C 173.601 266.420,168.254 266.992,158.659 261.639 C 153.593 258.813,146.892 253.105,143.935 249.097 C 143.129 248.005,142.369 247.031,142.246 246.931 C 139.751 244.917,136.925 233.852,137.276 227.474 C 137.670 220.321,133.023 216.211,127.707 219.011 M193.682 266.845 C 182.365 275.784,179.016 277.530,172.563 277.857 C 167.741 278.102,168.231 277.182,168.231 285.997 C 168.231 302.256,171.139 316.459,176.012 323.992 C 178.849 328.380,180.874 329.612,187.906 331.229 C 189.296 331.549,190.921 331.950,191.516 332.122 C 194.109 332.867,203.861 333.345,207.114 332.886 C 214.284 331.874,216.405 330.867,218.593 327.437 C 219.933 325.337,220.499 324.237,222.215 320.397 C 222.638 319.450,223.875 315.784,224.894 312.455 C 225.076 311.859,225.415 310.397,225.647 309.206 C 225.879 308.014,226.219 306.309,226.402 305.415 C 227.724 298.986,228.225 280.847,227.137 278.815 C 226.873 278.322,226.254 277.989,225.369 277.866 C 221.460 277.321,218.095 275.992,213.984 273.371 C 212.606 272.492,202.622 264.786,202.166 264.250 C 200.329 262.088,199.311 262.399,193.682 266.845 M305.356 263.448 C 305.063 263.795,304.274 264.973,303.602 266.065 C 299.145 273.313,291.317 283.460,285.887 289.028 C 284.317 290.638,283.032 292.080,283.032 292.233 C 283.032 292.550,286.711 288.771,290.056 285.018 C 293.616 281.024,298.150 274.997,301.916 269.253 C 306.042 262.962,305.907 263.072,306.870 265.186 C 307.878 267.399,309.786 270.479,310.009 270.255 C 310.107 270.158,309.841 269.591,309.417 268.997 C 308.994 268.402,308.081 266.769,307.388 265.366 C 305.969 262.496,306.074 262.595,305.356 263.448 M203.150 265.794 C 204.963 267.234,206.974 268.818,207.619 269.314 C 208.264 269.810,208.966 270.389,209.179 270.600 C 212.477 273.866,219.909 277.570,224.634 278.304 C 225.574 278.450,226.468 278.694,226.619 278.845 C 227.653 279.876,226.902 301.283,225.663 306.137 C 225.485 306.832,225.063 308.700,224.724 310.289 C 224.386 311.877,223.986 313.502,223.836 313.899 C 223.687 314.296,223.285 315.514,222.943 316.606 C 222.218 318.921,222.044 319.367,220.829 322.022 C 220.329 323.114,219.817 324.251,219.693 324.549 C 216.986 331.018,211.435 333.012,198.460 332.177 C 193.084 331.831,192.176 331.693,187.365 330.489 C 186.074 330.167,184.531 329.812,183.935 329.702 C 181.139 329.183,177.250 325.566,175.386 321.750 C 174.925 320.807,174.427 319.982,174.278 319.916 C 174.129 319.850,174.007 319.503,174.007 319.145 C 174.007 318.787,173.765 318.029,173.468 317.460 C 173.171 316.891,172.928 316.151,172.926 315.816 C 172.925 315.480,172.780 315.116,172.603 315.007 C 172.426 314.897,172.192 314.279,172.081 313.632 C 171.776 311.847,170.919 308.192,170.662 307.581 C 170.537 307.283,170.358 306.146,170.265 305.054 C 170.172 303.962,169.819 300.957,169.482 298.375 C 169.144 295.794,168.794 290.414,168.704 286.419 L 168.540 279.155 170.461 278.931 C 177.883 278.067,183.055 276.097,187.670 272.376 C 187.999 272.112,189.567 270.872,191.155 269.621 C 192.744 268.371,194.125 267.261,194.224 267.155 C 194.323 267.050,195.379 266.243,196.570 265.362 C 197.762 264.481,198.791 263.630,198.857 263.469 C 199.124 262.820,200.002 263.295,203.150 265.794 M88.124 266.215 C 85.203 272.760,82.202 276.299,77.798 278.391 C 76.209 279.146,75.171 279.768,75.490 279.773 C 79.115 279.835,85.144 273.709,88.269 266.787 C 89.594 263.852,89.437 264.028,90.269 264.547 C 90.665 264.795,90.975 264.834,90.975 264.637 C 90.975 264.340,89.861 263.538,89.448 263.538 C 89.377 263.538,88.781 264.743,88.124 266.215 M91.231 265.794 C 91.421 266.042,92.973 268.206,94.680 270.603 C 96.387 272.999,98.079 275.192,98.440 275.476 C 99.018 275.930,99.048 275.927,98.692 275.451 C 98.468 275.153,96.945 273.123,95.306 270.939 C 93.667 268.755,92.159 266.602,91.954 266.155 C 91.749 265.708,91.425 265.343,91.234 265.343 C 91.012 265.343,91.012 265.507,91.231 265.794 M310.744 271.661 C 312.268 273.874,317.033 277.292,318.524 277.242 C 318.760 277.234,317.978 276.737,316.787 276.138 C 315.596 275.539,313.581 274.043,312.309 272.813 C 311.036 271.582,310.333 271.064,310.744 271.661 M338.628 272.863 C 337.438 274.090,335.702 275.379,334.296 276.082 C 333.005 276.726,332.141 277.254,332.376 277.255 C 333.475 277.259,337.422 274.713,339.221 272.841 C 340.321 271.695,341.084 270.771,340.917 270.787 C 340.750 270.804,339.720 271.738,338.628 272.863 M99.310 276.715 C 102.504 281.415,112.514 291.532,118.477 296.086 C 124.246 300.492,135.670 307.050,136.365 306.355 C 136.473 306.246,136.093 305.985,135.519 305.775 C 126.166 302.343,113.452 292.685,104.218 281.997 C 100.788 278.027,98.607 275.680,99.310 276.715 M319.675 277.617 C 320.744 278.076,322.010 278.076,321.300 277.617 C 321.002 277.425,320.352 277.276,319.856 277.287 C 319.029 277.305,319.014 277.333,319.675 277.617 M329.964 277.617 C 329.246 278.081,330.148 278.081,331.227 277.617 L 331.949 277.307 331.227 277.287 C 330.830 277.276,330.262 277.425,329.964 277.617 M323.736 278.244 C 324.779 278.317,326.485 278.317,327.527 278.244 C 328.569 278.172,327.717 278.112,325.632 278.112 C 323.547 278.112,322.694 278.172,323.736 278.244 M64.621 280.316 C 66.691 281.004,71.581 281.014,73.466 280.335 C 74.657 279.906,74.749 279.812,73.989 279.799 C 73.483 279.791,72.895 279.957,72.682 280.170 C 72.290 280.562,66.808 280.451,64.260 280.000 C 63.222 279.816,63.286 279.873,64.621 280.316 M280.645 294.164 C 279.630 295.090,278.087 296.473,277.216 297.236 C 276.345 297.999,275.957 298.412,276.354 298.154 C 276.938 297.774,278.983 296.078,282.467 293.082 C 282.652 292.922,282.733 292.721,282.647 292.635 C 282.561 292.549,281.660 293.237,280.645 294.164 M236.360 317.575 C 236.264 317.737,236.065 318.433,235.917 319.122 C 235.769 319.810,235.526 320.622,235.377 320.927 C 235.229 321.231,234.906 322.130,234.660 322.924 C 234.168 324.513,233.767 325.504,232.354 328.620 C 231.834 329.767,231.408 330.798,231.408 330.911 C 231.408 331.024,231.042 331.628,230.596 332.253 C 230.149 332.879,229.540 333.832,229.242 334.371 C 227.219 338.033,222.986 341.338,217.768 343.328 C 217.117 343.576,216.670 343.866,216.776 343.972 C 216.882 344.078,217.334 344.005,217.780 343.810 C 225.964 340.238,230.040 335.728,234.002 325.857 C 235.605 321.864,237.259 316.054,236.360 317.575 M159.720 318.623 C 159.871 319.003,160.287 320.208,160.643 321.300 C 161.451 323.779,163.514 328.303,163.735 328.082 C 163.825 327.992,163.331 326.749,162.636 325.321 C 161.941 323.893,161.372 322.414,161.372 322.033 C 161.372 321.653,161.228 321.253,161.052 321.144 C 160.876 321.036,160.626 320.382,160.496 319.692 C 160.367 319.002,160.077 318.323,159.852 318.184 C 159.572 318.011,159.530 318.149,159.720 318.623 M163.899 328.661 C 163.899 330.913,172.055 339.129,176.177 341.028 C 178.700 342.191,179.851 342.629,181.802 343.166 C 186.241 344.390,185.780 343.909,181.227 342.567 C 180.532 342.362,179.314 341.941,178.520 341.632 C 173.260 339.582,169.468 336.449,165.751 331.081 C 164.732 329.610,163.899 328.521,163.899 328.661 M185.951 344.176 C 186.033 344.249,186.751 344.417,187.545 344.550 C 188.580 344.724,188.836 344.688,188.448 344.423 C 187.961 344.091,185.588 343.857,185.951 344.176 M214.079 344.367 C 212.561 345.213,197.714 345.652,191.516 345.034 L 188.989 344.782 191.697 345.288 C 195.069 345.917,206.909 346.009,210.553 345.434 C 213.797 344.922,216.815 344.100,215.523 344.079 C 215.027 344.072,214.377 344.201,214.079 344.367 "
              stroke="none" fill="#a33e2f" fill-rule="evenodd"></path>
    </g>
</svg>